<?xml version="1.0" encoding="utf-8"?>
<svg xmlns="http://www.w3.org/2000/svg" viewBox="0 0 800 200" xmlns:bx="https://boxy-svg.com">
  <g transform="matrix(1, 0, 0, 0.999635, 0, 0)">
    <rect width="800" height="200.074" rx="100" ry="100" style="stroke-width: 0px; fill: rgb(160, 67, 156); paint-order: stroke; stroke: rgb(160, 67, 156);"/>
    <path d="M 247.171 81.3 Q 246.951 80.448 246.567 79.734 Q 246.182 79.019 245.577 78.497 Q 244.972 77.975 244.162 77.686 Q 243.351 77.397 242.279 77.397 Q 240.712 77.397 239.572 78.03 Q 238.431 78.662 237.717 79.72 Q 237.002 80.778 236.658 82.125 Q 236.315 83.471 236.315 84.873 Q 236.315 86.275 236.658 87.622 Q 237.002 88.968 237.717 90.026 Q 238.431 91.085 239.572 91.717 Q 240.712 92.349 242.279 92.349 Q 243.433 92.349 244.313 91.95 Q 245.192 91.552 245.824 90.851 Q 246.457 90.15 246.814 89.216 Q 247.171 88.281 247.281 87.209 L 250.634 87.209 Q 250.524 88.968 249.878 90.425 Q 249.233 91.882 248.133 92.94 Q 247.034 93.998 245.55 94.575 Q 244.065 95.152 242.279 95.152 Q 240.08 95.152 238.335 94.341 Q 236.59 93.531 235.38 92.129 Q 234.171 90.727 233.525 88.858 Q 232.879 86.989 232.879 84.873 Q 232.879 82.784 233.525 80.915 Q 234.171 79.046 235.38 77.645 Q 236.59 76.243 238.335 75.419 Q 240.08 74.594 242.279 74.594 Q 243.928 74.594 245.385 75.048 Q 246.841 75.501 247.954 76.367 Q 249.068 77.233 249.755 78.469 Q 250.442 79.706 250.607 81.3 Z M 259.016 75.061 L 262.672 75.061 L 270.23 94.685 L 266.547 94.685 L 264.706 89.49 L 256.873 89.49 L 255.031 94.685 L 251.486 94.685 Z M 257.807 86.879 L 263.799 86.879 L 260.858 78.442 L 260.775 78.442 Z M 271.879 75.061 L 275.314 75.061 L 275.314 86.495 Q 275.314 87.484 275.411 88.501 Q 275.507 89.518 275.96 90.329 Q 276.414 91.14 277.335 91.662 Q 278.255 92.184 279.932 92.184 Q 281.608 92.184 282.529 91.662 Q 283.45 91.14 283.903 90.329 Q 284.357 89.518 284.453 88.501 Q 284.549 87.484 284.549 86.495 L 284.549 75.061 L 287.985 75.061 L 287.985 87.622 Q 287.985 89.518 287.408 90.92 Q 286.83 92.321 285.772 93.27 Q 284.714 94.218 283.23 94.685 Q 281.746 95.152 279.932 95.152 Q 278.118 95.152 276.634 94.685 Q 275.15 94.218 274.091 93.27 Q 273.033 92.321 272.456 90.92 Q 271.879 89.518 271.879 87.622 Z M 290.073 75.061 L 305.959 75.061 L 305.959 78.03 L 299.72 78.03 L 299.72 94.685 L 296.284 94.685 L 296.284 78.03 L 290.073 78.03 Z M 308.24 75.061 L 311.676 75.061 L 311.676 94.685 L 308.24 94.685 Z M 324.236 77.397 Q 322.67 77.397 321.529 78.03 Q 320.388 78.662 319.674 79.72 Q 318.959 80.778 318.616 82.125 Q 318.272 83.471 318.272 84.873 Q 318.272 86.275 318.616 87.622 Q 318.959 88.968 319.674 90.026 Q 320.388 91.085 321.529 91.717 Q 322.67 92.349 324.236 92.349 Q 325.803 92.349 326.943 91.717 Q 328.084 91.085 328.799 90.026 Q 329.513 88.968 329.857 87.622 Q 330.2 86.275 330.2 84.873 Q 330.2 83.471 329.857 82.125 Q 329.513 80.778 328.799 79.72 Q 328.084 78.662 326.943 78.03 Q 325.803 77.397 324.236 77.397 Z M 324.236 74.594 Q 326.435 74.594 328.18 75.419 Q 329.925 76.243 331.135 77.645 Q 332.344 79.046 332.99 80.915 Q 333.636 82.784 333.636 84.873 Q 333.636 86.989 332.99 88.858 Q 332.344 90.727 331.135 92.129 Q 329.925 93.531 328.18 94.341 Q 326.435 95.152 324.236 95.152 Q 322.037 95.152 320.292 94.341 Q 318.547 93.531 317.338 92.129 Q 316.128 90.727 315.482 88.858 Q 314.837 86.989 314.837 84.873 Q 314.837 82.784 315.482 80.915 Q 316.128 79.046 317.338 77.645 Q 318.547 76.243 320.292 75.419 Q 322.037 74.594 324.236 74.594 Z M 336.631 75.061 L 340.259 75.061 L 349.219 89.518 L 349.274 89.518 L 349.274 75.061 L 352.544 75.061 L 352.544 94.685 L 348.916 94.685 L 339.984 80.256 L 339.902 80.256 L 339.902 94.685 L 336.631 94.685 Z" transform="matrix(3.93406, 0, 0, 4.72999, -677.018, -300.436)" style="fill: rgb(255, 255, 255); text-wrap-mode: nowrap; stroke-width: 0px;"/>
    <path fill="#000000" opacity="0.20" d="M 100.6 0.072 C 45.358 0.072 0.6 44.831 0.6 100.072 C 0.6 155.315 45.358 200.073 100.6 200.073 C 155.842 200.073 200.6 155.315 200.6 100.072 C 200.6 44.831 155.842 0.072 100.6 0.072 Z" style="stroke-width: 0px;"/>
    <g transform="matrix(0.403226, 0, 0, 0.403226, 100.116, 100.073)" style="">
      <path fill="white" d="M 16.8 -139.28 C 16.8 -153.56 -1.59 -158.95 -9.69 -147.11 C -84 -38.49 21.6 -33.6 21.6 19.2 C 21.6 40.578 4.134 57.876 -17.31 57.594 C -38.412 57.324 -55.2 39.732 -55.2 18.63 L -55.2 -32.676 C -55.2 -45.696 -71.082 -52.014 -80.058 -42.576 C -96.12 -25.704 -112.8 3.198 -112.8 38.4 C -112.8 101.922 -61.122 153.6 2.4 153.6 C 65.922 153.6 117.6 101.922 117.6 38.4 C 117.6 -63.774 16.8 -77.4 16.8 -139.28 L 16.8 -139.28 Z" style="stroke-width: 0px;"/>
    </g>
  </g>
  <defs>
    <bx:grid x="0" y="0" width="100" height="100"/>
  </defs>
</svg>