<?xml version="1.0" encoding="utf-8"?>
<svg xmlns="http://www.w3.org/2000/svg" viewBox="0 0 500 200" xmlns:bx="https://boxy-svg.com">
  <g>
    <rect width="500.002" height="200" rx="100" ry="100" style="stroke-width: 0px; paint-order: fill; fill: rgb(65, 175, 70); stroke: rgb(65, 175, 70);"/>
    <path d="M 234.547 50.933 L 310.207 50.933 L 310.207 65.636 L 280.493 65.636 L 280.493 148.132 L 264.131 148.132 L 264.131 65.636 L 234.547 65.636 L 234.547 50.933 Z M 321.07 50.933 L 337.433 50.933 L 337.433 148.132 L 321.07 148.132 L 321.07 50.933 Z M 357.46 50.933 L 398.693 50.933 C 405.326 50.933 410.736 51.931 414.925 53.928 C 419.114 55.925 422.343 58.421 424.612 61.416 C 426.881 64.41 428.429 67.677 429.258 71.217 C 430.087 74.757 430.502 78.024 430.502 81.018 C 430.502 84.014 430.087 87.258 429.258 90.753 C 428.429 94.246 426.881 97.491 424.612 100.486 C 422.343 103.481 419.114 105.954 414.925 107.905 C 410.736 109.856 405.326 110.831 398.693 110.831 L 373.822 110.831 L 373.822 148.132 L 357.46 148.132 L 357.46 50.933 Z M 373.822 96.947 L 397.777 96.947 C 399.61 96.947 401.486 96.674 403.406 96.129 C 405.326 95.585 407.093 94.7 408.707 93.475 C 410.322 92.249 411.631 90.616 412.634 88.574 C 413.638 86.532 414.14 83.968 414.14 80.882 C 414.14 77.706 413.704 75.074 412.831 72.987 C 411.958 70.899 410.78 69.243 409.296 68.018 C 407.813 66.792 406.111 65.953 404.191 65.5 C 402.271 65.046 400.22 64.819 398.039 64.819 L 373.822 64.819 L 373.822 96.947 Z" style="text-wrap-mode: nowrap; stroke-width: 0px; fill: rgb(255, 255, 255);"/>
    <g>
      <path fill="#000000" opacity="0.20" d="M 100.001 0 C 44.759 0 0 44.758 0 100 C 0 155.242 44.759 200 100.001 200 C 155.243 200 200.001 155.242 200.001 100 C 200.001 44.758 155.243 0 100.001 0 Z" style="stroke-width: 0px; stroke: rgb(65, 175, 70);"/>
      <path d="M 99.019 50.94 C 84.283 50.94 72.297 62.712 72.297 77.185 C 72.297 79.602 74.29 81.559 76.75 81.559 C 79.211 81.559 81.205 79.602 81.205 77.185 C 81.205 67.535 89.197 59.689 99.019 59.689 C 101.48 59.689 103.471 57.731 103.471 55.314 C 103.471 52.898 101.48 50.94 99.019 50.94 Z M 76.767 154.601 C 76.767 155.461 77.026 156.301 77.512 157.017 L 84.336 167.089 C 85.161 168.308 86.553 169.041 88.042 169.041 L 109.992 169.041 C 111.483 169.041 112.875 168.308 113.699 167.089 L 120.522 157.017 C 121.006 156.301 121.265 155.459 121.268 154.601 L 121.282 142.795 L 76.755 142.795 L 76.767 154.601 Z M 99.019 29.069 C 70.548 29.069 50.029 51.752 50.029 77.185 C 50.029 89.315 54.607 100.382 62.152 108.838 C 66.785 114.03 74.051 124.913 76.744 134.033 L 76.744 134.05 L 90.106 134.05 L 90.106 134.017 C 90.102 132.713 89.905 131.417 89.506 130.171 C 87.952 125.301 83.155 112.463 72.202 100.188 C 66.483 93.782 63.43 85.657 63.404 77.185 C 63.348 57.053 80.012 42.192 99.019 42.192 C 118.665 42.192 134.648 57.889 134.648 77.185 C 134.648 85.652 131.519 93.821 125.838 100.188 C 114.952 112.384 110.134 125.195 108.552 130.113 C 108.145 131.377 107.935 132.696 107.934 134.023 L 107.934 134.05 L 121.296 134.05 L 121.296 134.036 C 123.989 124.913 131.255 114.03 135.886 108.841 C 143.43 100.382 148.009 89.315 148.009 77.185 C 148.009 50.612 126.075 29.069 99.019 29.069 Z" style="fill: rgb(255, 255, 255); stroke-width: 0px; stroke: rgb(65, 175, 70);"/>
    </g>
  </g>
  <defs>
    <bx:grid x="0" y="0" width="100" height="100"/>
  </defs>
</svg>