<?xml version="1.0" encoding="utf-8"?>
<svg xmlns="http://www.w3.org/2000/svg" viewBox="0 0 1000 200" xmlns:bx="https://boxy-svg.com">
  <defs>
    <bx:grid x="0" y="0" width="100" height="100"/>
  </defs>
  <g>
    <rect x="0" y="0" width="925" height="200" rx="100" ry="100" style="stroke-width: 0px; fill: rgb(211, 47, 47); stroke: rgb(211, 47, 47); paint-order: stroke;"/>
    <path d="M 233.924 75.061 L 237.359 75.061 L 237.359 94.685 L 233.924 94.685 Z M 241.509 75.061 L 246.346 75.061 L 251.761 90.425 L 251.816 90.425 L 257.093 75.061 L 261.875 75.061 L 261.875 94.685 L 258.604 94.685 L 258.604 79.541 L 258.549 79.541 L 253.108 94.685 L 250.277 94.685 L 244.835 79.541 L 244.78 79.541 L 244.78 94.685 L 241.509 94.685 Z M 265.997 75.061 L 274.654 75.061 Q 276.743 75.061 278.062 75.666 Q 279.381 76.271 280.096 77.178 Q 280.811 78.085 281.072 79.156 Q 281.333 80.228 281.333 81.135 Q 281.333 82.042 281.072 83.1 Q 280.811 84.159 280.096 85.066 Q 279.381 85.973 278.062 86.563 Q 276.743 87.154 274.654 87.154 L 269.432 87.154 L 269.432 94.685 L 265.997 94.685 Z M 269.432 84.351 L 274.462 84.351 Q 275.039 84.351 275.644 84.186 Q 276.248 84.021 276.757 83.65 Q 277.265 83.279 277.581 82.661 Q 277.897 82.042 277.897 81.108 Q 277.897 80.146 277.622 79.514 Q 277.348 78.882 276.88 78.511 Q 276.413 78.14 275.808 78.002 Q 275.204 77.865 274.517 77.865 L 269.432 77.865 Z M 292.684 77.397 Q 291.117 77.397 289.977 78.03 Q 288.836 78.662 288.122 79.72 Q 287.407 80.778 287.063 82.125 Q 286.72 83.471 286.72 84.873 Q 286.72 86.275 287.063 87.622 Q 287.407 88.968 288.122 90.026 Q 288.836 91.085 289.977 91.717 Q 291.117 92.349 292.684 92.349 Q 294.251 92.349 295.391 91.717 Q 296.532 91.085 297.246 90.026 Q 297.961 88.968 298.305 87.622 Q 298.648 86.275 298.648 84.873 Q 298.648 83.471 298.305 82.125 Q 297.961 80.778 297.246 79.72 Q 296.532 78.662 295.391 78.03 Q 294.251 77.397 292.684 77.397 Z M 292.684 74.594 Q 294.883 74.594 296.628 75.419 Q 298.373 76.243 299.583 77.645 Q 300.792 79.046 301.438 80.915 Q 302.084 82.784 302.084 84.873 Q 302.084 86.989 301.438 88.858 Q 300.792 90.727 299.583 92.129 Q 298.373 93.531 296.628 94.341 Q 294.883 95.152 292.684 95.152 Q 290.485 95.152 288.74 94.341 Q 286.995 93.531 285.785 92.129 Q 284.576 90.727 283.93 88.858 Q 283.284 86.989 283.284 84.873 Q 283.284 82.784 283.93 80.915 Q 284.576 79.046 285.785 77.645 Q 286.995 76.243 288.74 75.419 Q 290.485 74.594 292.684 74.594 Z M 305.216 75.061 L 314.588 75.061 Q 317.832 75.061 319.453 76.463 Q 321.075 77.865 321.075 80.366 Q 321.075 81.767 320.662 82.688 Q 320.25 83.609 319.7 84.172 Q 319.151 84.736 318.615 84.983 Q 318.079 85.23 317.832 85.313 L 317.832 85.368 Q 318.271 85.423 318.78 85.643 Q 319.288 85.863 319.728 86.344 Q 320.168 86.825 320.456 87.594 Q 320.745 88.364 320.745 89.518 Q 320.745 91.249 321.006 92.665 Q 321.267 94.08 321.817 94.685 L 318.134 94.685 Q 317.749 94.053 317.68 93.283 Q 317.612 92.514 317.612 91.799 Q 317.612 90.452 317.447 89.477 Q 317.282 88.501 316.842 87.855 Q 316.402 87.209 315.647 86.907 Q 314.891 86.605 313.709 86.605 L 308.652 86.605 L 308.652 94.685 L 305.216 94.685 Z M 308.652 83.994 L 314.286 83.994 Q 315.935 83.994 316.787 83.21 Q 317.639 82.427 317.639 80.86 Q 317.639 79.926 317.364 79.335 Q 317.089 78.744 316.608 78.414 Q 316.127 78.085 315.509 77.975 Q 314.891 77.865 314.231 77.865 L 308.652 77.865 Z M 322.448 75.061 L 338.334 75.061 L 338.334 78.03 L 332.095 78.03 L 332.095 94.685 L 328.66 94.685 L 328.66 78.03 L 322.448 78.03 Z M 344.353 75.061 L 348.008 75.061 L 355.567 94.685 L 351.884 94.685 L 350.042 89.49 L 342.209 89.49 L 340.368 94.685 L 336.822 94.685 Z M 343.144 86.879 L 349.135 86.879 L 346.195 78.442 L 346.112 78.442 Z M 356.033 75.061 L 359.661 75.061 L 368.621 89.518 L 368.676 89.518 L 368.676 75.061 L 371.947 75.061 L 371.947 94.685 L 368.319 94.685 L 359.387 80.256 L 359.304 80.256 L 359.304 94.685 L 356.033 94.685 Z M 374.145 75.061 L 390.031 75.061 L 390.031 78.03 L 383.792 78.03 L 383.792 94.685 L 380.357 94.685 L 380.357 78.03 L 374.145 78.03 Z" transform="matrix(3.93406, 0, 0, 4.73, -677.214, -302.509)" style="fill: rgb(255, 255, 255); text-wrap-mode: nowrap; stroke-width: 0px;"/>
    <g transform="matrix(0.403226, 0, 0, 0.403226, 100, 100)">
      <path fill="#000000" opacity="0.20" d="M 1 -248 C -136 -248 -247 -137 -247 0.003 C -247 137.003 -136 248 1 248 C 137.997 248 249 137.003 249 0.003 C 249 -137 137.997 -248 1 -248 Z" style="stroke-width: 0px;"/>
      <path fill="white" d="M 48.6 105.6 C 48.6 132.067 27.067 153.6 0.6 153.6 C -25.867 153.6 -47.4 132.067 -47.4 105.6 C -47.4 79.133 -25.867 57.6 0.6 57.6 C 27.067 57.6 48.6 79.133 48.6 105.6 Z M -41.844 -138.48 L -33.684 24.719 C -33.301 32.383 -26.975 38.4 -19.302 38.4 L 20.502 38.4 C 28.175 38.4 34.501 32.383 34.884 24.719 L 43.044 -138.48 C 43.455 -146.71 36.898 -153.6 28.662 -153.6 L -27.462 -153.6 C -35.698 -153.6 -42.255 -146.71 -41.844 -138.48 Z" style="stroke-width: 0px;"/>
    </g>
  </g>
</svg>