<?xml version="1.0" encoding="utf-8"?>
<svg xmlns="http://www.w3.org/2000/svg" viewBox="0 0 600 200" xmlns:bx="https://boxy-svg.com">
  <g transform="matrix(1, 0, 0, 1, -31.8351, -67.35)" style="transform-origin: 31.8351px 67.35px;">
    <rect x="31.835" y="67.35" width="600" height="200" rx="100" ry="100" style="stroke-width: 0px; stroke: rgb(33, 126, 231); paint-order: fill; fill: rgb(33, 126, 231); transform-origin: 31.8351px 67.35px;"/>
    <path d="M 233.786 75.061 L 237.414 75.061 L 246.374 89.518 L 246.429 89.518 L 246.429 75.061 L 249.7 75.061 L 249.7 94.685 L 246.072 94.685 L 237.139 80.256 L 237.057 80.256 L 237.057 94.685 L 233.786 94.685 Z M 262.122 77.397 Q 260.556 77.397 259.415 78.03 Q 258.274 78.662 257.56 79.72 Q 256.845 80.778 256.502 82.125 Q 256.158 83.471 256.158 84.873 Q 256.158 86.275 256.502 87.622 Q 256.845 88.968 257.56 90.026 Q 258.274 91.085 259.415 91.717 Q 260.556 92.349 262.122 92.349 Q 263.689 92.349 264.829 91.717 Q 265.97 91.085 266.684 90.026 Q 267.399 88.968 267.743 87.622 Q 268.086 86.275 268.086 84.873 Q 268.086 83.471 267.743 82.125 Q 267.399 80.778 266.684 79.72 Q 265.97 78.662 264.829 78.03 Q 263.689 77.397 262.122 77.397 Z M 262.122 74.594 Q 264.321 74.594 266.066 75.419 Q 267.811 76.243 269.021 77.645 Q 270.23 79.046 270.876 80.915 Q 271.522 82.784 271.522 84.873 Q 271.522 86.989 270.876 88.858 Q 270.23 90.727 269.021 92.129 Q 267.811 93.531 266.066 94.341 Q 264.321 95.152 262.122 95.152 Q 259.923 95.152 258.178 94.341 Q 256.433 93.531 255.224 92.129 Q 254.014 90.727 253.368 88.858 Q 252.723 86.989 252.723 84.873 Q 252.723 82.784 253.368 80.915 Q 254.014 79.046 255.224 77.645 Q 256.433 76.243 258.178 75.419 Q 259.923 74.594 262.122 74.594 Z M 272.785 75.061 L 288.671 75.061 L 288.671 78.03 L 282.432 78.03 L 282.432 94.685 L 278.997 94.685 L 278.997 78.03 L 272.785 78.03 Z M 290.953 75.061 L 305.079 75.061 L 305.079 78.03 L 294.388 78.03 L 294.388 83.169 L 304.282 83.169 L 304.282 85.973 L 294.388 85.973 L 294.388 91.717 L 305.272 91.717 L 305.272 94.685 L 290.953 94.685 Z" transform="matrix(3.93406, 0, 0, 4.72999, -645.783, -233.159)" style="fill: rgb(255, 255, 255); text-wrap-mode: nowrap; stroke-width: 0px;"/>
    <g transform="matrix(0.241936, 0, 0, 0.241936, 131.593, 167.35)">
      <path fill="#000000" opacity="0.20" d="M 0.999 -413.33 C -227.33 -413.33 -412.33 -228.33 -412.33 -0.001 C -412.33 228.332 -227.33 413.331 0.999 413.331 C 229.332 413.331 414.331 228.332 414.331 -0.001 C 414.331 -228.33 229.332 -413.33 0.999 -413.33 Z" style="stroke-width: 0px;"/>
      <path fill="white" d="M -75 168.225 L -55.003 168.225 L -55.003 23.77 L -75 23.77 C -86.048 23.77 -95.001 14.813 -95.001 3.769 L -95.001 -44.004 C -95.001 -55.048 -86.048 -64.001 -75 -64.001 L 37 -64.001 C 48.045 -64.001 56.997 -55.048 56.997 -44.004 L 56.997 168.225 L 76.999 168.225 C 88.043 168.225 97 177.182 97 188.226 L 97 235.999 C 97 247.044 88.043 255.996 76.999 255.996 L -75 255.996 C -86.048 255.996 -95.001 247.044 -95.001 235.999 L -95.001 188.226 C -95.001 177.182 -86.048 168.225 -75 168.225 Z M 0.999 -256 C -38.767 -256 -71.003 -223.77 -71.003 -184 C -71.003 -144.24 -38.767 -112 0.999 -112 C 40.762 -112 72.998 -144.24 72.998 -184 C 72.998 -223.77 40.762 -256 0.999 -256 Z" style="stroke-width: 0px;"/>
    </g>
  </g>
  <defs>
    <bx:grid x="0" y="0" width="100" height="100"/>
  </defs>
</svg>