<?xml version="1.0" encoding="utf-8"?>
<svg xmlns="http://www.w3.org/2000/svg" viewBox="0 0 925 200" xmlns:bx="https://boxy-svg.com">
  <defs>
    <bx:grid x="0" y="0" width="100" height="100"/>
  </defs>
  <g>
    <rect x="0" y="0" width="925" height="200" rx="100" ry="100" style="fill: rgb(211, 47, 47); stroke-width: 0px; stroke: rgb(211, 47, 47); paint-order: fill markers;"/>
    <path d="M 233.924 75.061 L 237.359 75.061 L 237.359 94.685 L 233.924 94.685 Z M 241.509 75.061 L 246.346 75.061 L 251.76 90.425 L 251.815 90.425 L 257.092 75.061 L 261.874 75.061 L 261.874 94.685 L 258.604 94.685 L 258.604 79.541 L 258.549 79.541 L 253.107 94.685 L 250.276 94.685 L 244.834 79.541 L 244.779 79.541 L 244.779 94.685 L 241.509 94.685 Z M 265.997 75.061 L 274.655 75.061 Q 276.743 75.061 278.063 75.666 Q 279.382 76.271 280.097 77.178 Q 280.811 78.085 281.072 79.156 Q 281.333 80.228 281.333 81.135 Q 281.333 82.042 281.072 83.1 Q 280.811 84.159 280.097 85.066 Q 279.382 85.973 278.063 86.563 Q 276.743 87.154 274.655 87.154 L 269.433 87.154 L 269.433 94.685 L 265.997 94.685 Z M 269.433 84.351 L 274.462 84.351 Q 275.039 84.351 275.644 84.186 Q 276.249 84.021 276.757 83.65 Q 277.266 83.279 277.582 82.661 Q 277.898 82.042 277.898 81.108 Q 277.898 80.146 277.623 79.514 Q 277.348 78.882 276.881 78.511 Q 276.414 78.14 275.809 78.002 Q 275.204 77.865 274.517 77.865 L 269.433 77.865 Z M 292.684 77.397 Q 291.118 77.397 289.977 78.03 Q 288.836 78.662 288.122 79.72 Q 287.407 80.778 287.064 82.125 Q 286.72 83.471 286.72 84.873 Q 286.72 86.275 287.064 87.622 Q 287.407 88.968 288.122 90.026 Q 288.836 91.085 289.977 91.717 Q 291.118 92.349 292.684 92.349 Q 294.251 92.349 295.391 91.717 Q 296.532 91.085 297.247 90.026 Q 297.961 88.968 298.305 87.622 Q 298.648 86.275 298.648 84.873 Q 298.648 83.471 298.305 82.125 Q 297.961 80.778 297.247 79.72 Q 296.532 78.662 295.391 78.03 Q 294.251 77.397 292.684 77.397 Z M 292.684 74.594 Q 294.883 74.594 296.628 75.419 Q 298.373 76.243 299.583 77.645 Q 300.792 79.046 301.438 80.915 Q 302.084 82.784 302.084 84.873 Q 302.084 86.989 301.438 88.858 Q 300.792 90.727 299.583 92.129 Q 298.373 93.531 296.628 94.341 Q 294.883 95.152 292.684 95.152 Q 290.485 95.152 288.74 94.341 Q 286.995 93.531 285.786 92.129 Q 284.576 90.727 283.93 88.858 Q 283.285 86.989 283.285 84.873 Q 283.285 82.784 283.93 80.915 Q 284.576 79.046 285.786 77.645 Q 286.995 76.243 288.74 75.419 Q 290.485 74.594 292.684 74.594 Z M 305.217 75.061 L 314.589 75.061 Q 317.832 75.061 319.453 76.463 Q 321.075 77.865 321.075 80.366 Q 321.075 81.767 320.663 82.688 Q 320.25 83.609 319.701 84.172 Q 319.151 84.736 318.615 84.983 Q 318.079 85.23 317.832 85.313 L 317.832 85.368 Q 318.272 85.423 318.78 85.643 Q 319.289 85.863 319.728 86.344 Q 320.168 86.825 320.457 87.594 Q 320.745 88.364 320.745 89.518 Q 320.745 91.249 321.006 92.665 Q 321.267 94.08 321.817 94.685 L 318.134 94.685 Q 317.749 94.053 317.681 93.283 Q 317.612 92.514 317.612 91.799 Q 317.612 90.452 317.447 89.477 Q 317.282 88.501 316.842 87.855 Q 316.403 87.209 315.647 86.907 Q 314.891 86.605 313.709 86.605 L 308.652 86.605 L 308.652 94.685 L 305.217 94.685 Z M 308.652 83.994 L 314.286 83.994 Q 315.935 83.994 316.787 83.21 Q 317.639 82.427 317.639 80.86 Q 317.639 79.926 317.365 79.335 Q 317.09 78.744 316.609 78.414 Q 316.128 78.085 315.509 77.975 Q 314.891 77.865 314.231 77.865 L 308.652 77.865 Z M 322.449 75.061 L 338.335 75.061 L 338.335 78.03 L 332.096 78.03 L 332.096 94.685 L 328.661 94.685 L 328.661 78.03 L 322.449 78.03 Z M 344.354 75.061 L 348.009 75.061 L 355.567 94.685 L 351.885 94.685 L 350.043 89.49 L 342.21 89.49 L 340.369 94.685 L 336.823 94.685 Z M 343.145 86.879 L 349.136 86.879 L 346.195 78.442 L 346.113 78.442 Z M 356.034 75.061 L 359.662 75.061 L 368.622 89.518 L 368.677 89.518 L 368.677 75.061 L 371.948 75.061 L 371.948 94.685 L 368.32 94.685 L 359.387 80.256 L 359.305 80.256 L 359.305 94.685 L 356.034 94.685 Z M 374.147 75.061 L 390.033 75.061 L 390.033 78.03 L 383.794 78.03 L 383.794 94.685 L 380.358 94.685 L 380.358 78.03 L 374.147 78.03 Z" transform="matrix(3.93406, 0, 0, 4.73, -677.214, -302.509)" style="fill: rgb(255, 255, 255); text-wrap-mode: nowrap; stroke-width: 0px;"/>
    <g transform="matrix(0.403226, 0, 0, 0.403226, 100, 100)">
      <path fill="#000000" opacity="0.20" d="M 1 -248 C -136 -248 -247 -137 -247 0.003 C -247 137.003 -136 248 1 248 C 137.997 248 249 137.003 249 0.003 C 249 -137 137.997 -248 1 -248 Z" style="stroke-width: 0px;"/>
      <path fill="white" d="M 48.6 105.6 C 48.6 132.067 27.067 153.6 0.6 153.6 C -25.867 153.6 -47.4 132.067 -47.4 105.6 C -47.4 79.133 -25.867 57.6 0.6 57.6 C 27.067 57.6 48.6 79.133 48.6 105.6 Z M -41.844 -138.48 L -33.684 24.719 C -33.301 32.383 -26.975 38.4 -19.302 38.4 L 20.502 38.4 C 28.175 38.4 34.501 32.383 34.884 24.719 L 43.044 -138.48 C 43.455 -146.71 36.898 -153.6 28.662 -153.6 L -27.462 -153.6 C -35.698 -153.6 -42.255 -146.71 -41.844 -138.48 Z" style="stroke-width: 0px;"/>
    </g>
  </g>
</svg>