<?xml version="1.0" encoding="utf-8"?>
<svg xmlns="http://www.w3.org/2000/svg" viewBox="0 0 1000 200" xmlns:bx="https://boxy-svg.com">
  <g transform="matrix(1, 0, 0, 1, -31.8351, -67.35)" style="transform-origin: 31.8351px 67.35px;">
    <rect x="31.835" y="67.35" width="600" height="200" rx="100" ry="100" style="stroke-width: 0px; stroke: rgb(33, 126, 231); paint-order: fill; fill: rgb(33, 126, 231); transform-origin: 31.8351px 67.35px;"/>
    <path d="M 233.786 75.061 L 237.414 75.061 L 246.374 89.518 L 246.429 89.518 L 246.429 75.061 L 249.7 75.061 L 249.7 94.685 L 246.072 94.685 L 237.139 80.256 L 237.057 80.256 L 237.057 94.685 L 233.786 94.685 Z M 262.122 77.397 Q 260.555 77.397 259.414 78.03 Q 258.274 78.662 257.559 79.72 Q 256.845 80.778 256.501 82.125 Q 256.157 83.471 256.157 84.873 Q 256.157 86.275 256.501 87.622 Q 256.845 88.968 257.559 90.026 Q 258.274 91.085 259.414 91.717 Q 260.555 92.349 262.122 92.349 Q 263.688 92.349 264.829 91.717 Q 265.969 91.085 266.684 90.026 Q 267.399 88.968 267.742 87.622 Q 268.086 86.275 268.086 84.873 Q 268.086 83.471 267.742 82.125 Q 267.399 80.778 266.684 79.72 Q 265.969 78.662 264.829 78.03 Q 263.688 77.397 262.122 77.397 Z M 262.122 74.594 Q 264.32 74.594 266.066 75.419 Q 267.811 76.243 269.02 77.645 Q 270.229 79.046 270.875 80.915 Q 271.521 82.784 271.521 84.873 Q 271.521 86.989 270.875 88.858 Q 270.229 90.727 269.02 92.129 Q 267.811 93.531 266.066 94.341 Q 264.32 95.152 262.122 95.152 Q 259.923 95.152 258.178 94.341 Q 256.432 93.531 255.223 92.129 Q 254.014 90.727 253.368 88.858 Q 252.722 86.989 252.722 84.873 Q 252.722 82.784 253.368 80.915 Q 254.014 79.046 255.223 77.645 Q 256.432 76.243 258.178 75.419 Q 259.923 74.594 262.122 74.594 Z M 272.786 75.061 L 288.672 75.061 L 288.672 78.03 L 282.433 78.03 L 282.433 94.685 L 278.997 94.685 L 278.997 78.03 L 272.786 78.03 Z M 290.952 75.061 L 305.079 75.061 L 305.079 78.03 L 294.388 78.03 L 294.388 83.169 L 304.282 83.169 L 304.282 85.973 L 294.388 85.973 L 294.388 91.717 L 305.272 91.717 L 305.272 94.685 L 290.952 94.685 Z" transform="matrix(3.93406, 0, 0, 4.72999, -645.783, -233.159)" style="fill: rgb(255, 255, 255); text-wrap-mode: nowrap; stroke-width: 0px;"/>
    <g transform="matrix(0.403226, 0, 0, 0.403226, 131.593, 167.35)" style="">
      <path fill="#000000" opacity="0.20" d="M 0.601 -248 C -136.4 -248 -247.4 -137 -247.4 0 C -247.4 137 -136.4 248 0.601 248 C 137.601 248 248.601 137 248.601 0 C 248.601 -137 137.601 -248 0.601 -248 Z" style="stroke-width: 0px;"/>
      <path fill="white" d="M -45 100.937 L -33 100.937 L -33 14.263 L -45 14.263 C -51.628 14.263 -57 8.89 -57 2.263 L -57 -26.4 C -57 -33.028 -51.628 -38.4 -45 -38.4 L 22.2 -38.4 C 28.828 -38.4 34.2 -33.028 34.2 -26.4 L 34.2 100.937 L 46.2 100.937 C 52.828 100.937 58.2 106.31 58.2 112.937 L 58.2 141.6 C 58.2 148.228 52.828 153.6 46.2 153.6 L -45 153.6 C -51.628 153.6 -57 148.228 -57 141.6 L -57 112.937 C -57 106.31 -51.628 100.937 -45 100.937 Z M 0.6 -153.6 C -23.259 -153.6 -42.6 -134.26 -42.6 -110.4 C -42.6 -86.541 -23.259 -67.2 0.6 -67.2 C 24.459 -67.2 43.8 -86.541 43.8 -110.4 C 43.8 -134.26 24.458 -153.6 0.6 -153.6 Z" style="stroke-width: 0px;"/>
    </g>
  </g>
  <defs>
    <bx:grid x="0" y="0" width="100" height="100"/>
  </defs>
</svg>