<?xml version="1.0" encoding="utf-8"?>
<svg viewBox="0 0 500 250" xmlns="http://www.w3.org/2000/svg">
  <path d="M 446.429 0 L 50 0 C 25 0 0 25 0 50 L 0 200 C 0 225 23.995 250 53.571 250 L 446.429 250 C 476.005 250 500 225 500 200 L 500 50 C 500 25 476.005 0 446.429 0 Z" style="fill: rgb(212, 47, 48);"/>
  <path d="M 58.45 89.55 C 59.917 89.55 61.5 89.717 63.2 90.05 C 64.9 90.383 66.483 90.817 67.95 91.35 C 69.417 91.883 70.683 92.467 71.75 93.1 C 72.817 93.733 73.45 94.35 73.65 94.95 C 73.65 93.417 74.067 92.167 74.9 91.2 C 75.733 90.233 76.917 89.75 78.45 89.75 C 81.717 89.75 83.35 91.517 83.35 95.05 C 83.35 95.65 83.25 97.25 83.05 99.85 L 83.05 99.75 C 82.917 101.35 82.8 102.7 82.7 103.8 C 82.6 104.9 82.55 105.75 82.55 106.35 C 82.55 107.95 82.65 109.683 82.85 111.55 L 83.15 115.15 L 83.15 116.25 C 83.15 119.983 81.483 121.85 78.15 121.85 C 74.483 121.85 72.717 120.05 72.85 116.45 C 72.85 115.85 72.867 115.25 72.9 114.65 C 72.933 114.05 72.95 113.483 72.95 112.95 C 73.083 108.683 71.8 105.25 69.1 102.65 C 66.4 100.05 62.85 98.75 58.45 98.75 C 52.583 98.75 48.017 101.05 44.75 105.65 C 41.483 110.25 39.85 116.65 39.85 124.85 C 39.85 133.25 41.55 139.767 44.95 144.4 C 48.35 149.033 53.083 151.35 59.15 151.35 C 62.417 151.35 65.317 150.567 67.85 149 C 70.383 147.433 72.183 145.35 73.25 142.75 C 73.583 141.883 73.833 140.883 74 139.75 C 74.167 138.617 74.25 137.283 74.25 135.75 C 74.25 131.95 76.017 130.05 79.55 130.05 C 83.283 130.05 85.15 131.95 85.15 135.75 C 85.15 143.017 82.583 148.95 77.45 153.55 C 72.45 158.15 65.983 160.45 58.05 160.45 C 48.983 160.45 41.65 157.25 36.05 150.85 C 33.317 147.65 31.3 143.967 30 139.8 C 28.7 135.633 28.05 130.95 28.05 125.75 C 28.05 120.35 28.717 115.5 30.05 111.2 C 31.383 106.9 33.45 103.05 36.25 99.65 C 41.783 92.917 49.183 89.55 58.45 89.55 Z M 134.498 137.25 C 134.231 136.583 133.981 136.167 133.748 136 C 133.515 135.833 133.031 135.75 132.298 135.75 L 115.198 135.75 C 114.398 135.75 113.848 135.933 113.548 136.3 C 113.248 136.667 112.798 137.65 112.198 139.25 L 109.398 146.75 C 109.198 147.283 109.098 147.75 109.098 148.15 C 109.098 149.35 109.798 149.95 111.198 149.95 C 111.465 149.95 111.831 149.933 112.298 149.9 C 112.765 149.867 113.265 149.817 113.798 149.75 C 114.331 149.683 114.831 149.633 115.298 149.6 C 115.765 149.567 116.198 149.55 116.598 149.55 C 120.331 149.55 122.198 151.117 122.198 154.25 C 122.198 157.25 120.198 158.75 116.198 158.75 C 115.931 158.75 115.631 158.733 115.298 158.7 C 114.965 158.667 114.631 158.617 114.298 158.55 L 113.898 158.55 L 109.098 157.85 C 108.698 157.783 108.098 157.733 107.298 157.7 C 106.498 157.667 105.698 157.65 104.898 157.65 C 103.965 157.65 103.081 157.667 102.248 157.7 C 101.415 157.733 100.798 157.783 100.398 157.85 L 96.398 158.45 C 95.531 158.583 94.748 158.683 94.048 158.75 C 93.348 158.817 92.731 158.85 92.198 158.85 C 88.598 158.85 86.798 157.35 86.798 154.35 C 86.798 151.217 88.565 149.65 92.098 149.65 C 92.431 149.65 92.681 149.633 92.848 149.6 C 93.015 149.567 93.265 149.617 93.598 149.75 L 94.498 149.75 C 95.565 149.75 96.398 149.283 96.998 148.35 C 97.398 147.817 97.998 146.383 98.798 144.05 L 116.698 95.75 C 117.898 92.483 120.431 90.85 124.298 90.85 C 128.031 90.85 130.498 92.483 131.698 95.75 L 148.898 143.35 C 149.831 145.95 150.648 147.7 151.348 148.6 C 152.048 149.5 152.965 149.95 154.098 149.95 C 154.565 149.95 154.898 149.917 155.098 149.85 C 155.565 149.85 155.948 149.833 156.248 149.8 C 156.548 149.767 156.831 149.75 157.098 149.75 C 157.365 149.75 157.598 149.717 157.798 149.65 C 161.465 149.65 163.298 151.117 163.298 154.05 C 163.298 157.117 161.531 158.65 157.998 158.65 C 157.665 158.65 157.281 158.65 156.848 158.65 C 156.415 158.65 156.031 158.617 155.698 158.55 C 155.565 158.55 155.431 158.533 155.298 158.5 C 155.165 158.467 155.065 158.45 154.998 158.45 C 152.998 158.183 151.265 158 149.798 157.9 C 148.331 157.8 147.131 157.75 146.198 157.75 C 145.065 157.75 143.548 157.817 141.648 157.95 C 139.748 158.083 137.465 158.283 134.798 158.55 C 134.665 158.55 134.515 158.567 134.348 158.6 C 134.181 158.633 134.031 158.65 133.898 158.65 C 133.498 158.717 133.081 158.75 132.648 158.75 C 132.215 158.75 131.865 158.75 131.598 158.75 C 127.931 158.75 126.098 157.217 126.098 154.15 C 126.098 151.083 128.065 149.55 131.998 149.55 C 132.331 149.55 132.731 149.567 133.198 149.6 C 133.665 149.633 134.165 149.683 134.698 149.75 C 135.165 149.817 135.631 149.867 136.098 149.9 C 136.565 149.933 136.898 149.95 137.098 149.95 C 138.098 149.95 138.598 149.517 138.598 148.65 C 138.598 148.583 138.565 148.45 138.498 148.25 C 138.431 148.05 138.331 147.783 138.198 147.45 L 137.898 146.55 L 137.898 146.65 L 134.498 137.25 Z M 116.498 127.55 C 116.431 127.617 116.398 127.583 116.398 127.45 L 116.498 127.55 Z M 116.398 127.45 C 116.398 127.317 116.415 127.2 116.448 127.1 C 116.481 127 116.498 127.017 116.498 127.15 C 116.431 127.217 116.398 127.283 116.398 127.35 L 116.398 127.45 Z M 116.498 127.05 C 116.498 126.983 116.431 126.883 116.298 126.75 L 116.598 126.75 C 116.531 126.817 116.498 126.917 116.498 127.05 Z M 131.098 127.25 C 131.031 127.183 130.998 127.117 130.998 127.05 C 130.998 126.983 130.965 126.883 130.898 126.75 L 131.498 126.75 C 131.231 126.883 131.098 127.05 131.098 127.25 Z M 123.898 105.15 C 122.631 108.75 121.381 112.35 120.148 115.95 C 118.915 119.55 117.731 123.15 116.598 126.75 L 130.898 126.75 L 130.898 126.55 L 123.898 105.15 Z M 182.648 114.05 L 182.248 121.75 L 182.248 136.45 C 182.248 140.917 182.681 143.983 183.548 145.65 C 184.481 147.45 186.081 148.85 188.348 149.85 C 189.481 150.25 190.681 150.6 191.948 150.9 C 193.215 151.2 194.448 151.35 195.648 151.35 C 198.848 151.35 201.531 150.767 203.698 149.6 C 205.865 148.433 207.281 146.883 207.948 144.95 C 208.281 143.817 208.531 142.567 208.698 141.2 C 208.865 139.833 208.981 138.283 209.048 136.55 C 209.048 132.417 209.081 128.3 209.148 124.2 C 209.215 120.1 209.248 115.983 209.248 111.85 C 209.248 109.45 209.231 107.6 209.198 106.3 C 209.165 105 209.115 104.183 209.048 103.85 C 208.515 101.317 207.448 100.05 205.848 100.05 C 205.515 100.05 205.181 100.083 204.848 100.15 C 204.715 100.15 204.598 100.167 204.498 100.2 C 204.398 100.233 204.281 100.25 204.148 100.25 C 203.615 100.383 203.081 100.467 202.548 100.5 C 202.015 100.533 201.581 100.55 201.248 100.55 C 200.048 100.55 198.965 100.083 197.998 99.15 C 197.031 98.217 196.548 97.183 196.548 96.05 C 196.548 92.85 198.515 91.25 202.448 91.25 C 202.781 91.25 203.081 91.25 203.348 91.25 C 203.615 91.25 203.848 91.283 204.048 91.35 L 209.648 92.15 C 211.048 92.35 212.581 92.45 214.248 92.45 C 215.781 92.45 217.115 92.35 218.248 92.15 L 222.448 91.45 C 223.448 91.25 224.315 91.15 225.048 91.15 C 228.781 91.15 230.648 92.683 230.648 95.75 C 230.648 98.817 228.815 100.35 225.148 100.35 L 223.448 100.35 C 223.315 100.283 223.181 100.25 223.048 100.25 C 221.981 100.25 221.315 100.85 221.048 102.05 C 220.648 103.783 220.448 108.617 220.448 116.55 L 220.448 133.35 C 220.448 135.417 220.431 137.25 220.398 138.85 C 220.365 140.45 220.281 141.717 220.148 142.65 C 219.548 145.85 218.348 148.817 216.548 151.55 C 212.415 157.483 205.481 160.45 195.748 160.45 C 183.615 160.45 175.848 156.517 172.448 148.65 L 172.548 148.65 C 171.881 147.383 171.415 145.833 171.148 144 C 170.881 142.167 170.748 140.05 170.748 137.65 C 170.748 135.317 170.848 131.883 171.048 127.35 C 171.248 122.883 171.348 119.483 171.348 117.15 L 171.348 112.05 C 171.348 107.317 171.315 104.783 171.248 104.45 C 170.848 101.65 170.148 100.25 169.148 100.25 L 168.448 100.25 C 168.115 100.383 167.765 100.45 167.398 100.45 C 167.031 100.45 166.681 100.45 166.348 100.45 C 162.548 100.45 160.648 98.917 160.648 95.85 C 160.648 92.783 162.415 91.25 165.948 91.25 C 167.148 91.25 168.348 91.35 169.548 91.55 C 171.081 91.817 172.548 92.017 173.948 92.15 C 175.348 92.283 176.681 92.35 177.948 92.35 C 180.681 92.35 183.748 92.05 187.148 91.45 C 187.548 91.383 187.981 91.333 188.448 91.3 C 188.915 91.267 189.415 91.25 189.948 91.25 C 193.681 91.25 195.548 92.783 195.548 95.85 C 195.548 98.917 193.881 100.45 190.548 100.45 C 190.148 100.45 189.748 100.433 189.348 100.4 C 188.948 100.367 188.515 100.317 188.048 100.25 C 187.648 100.183 187.148 100.133 186.548 100.1 C 185.948 100.067 185.681 100.017 185.748 99.95 C 184.615 100.017 183.815 100.783 183.348 102.25 C 183.215 102.65 183.115 103.317 183.048 104.25 C 182.981 105.183 182.915 106.35 182.848 107.75 L 182.648 114.05 Z M 266.25 144.35 C 266.25 148.217 267.35 150.15 269.55 150.15 C 269.683 150.15 269.967 150.133 270.4 150.1 C 270.833 150.067 271.25 150.017 271.65 149.95 C 272.117 149.95 272.683 149.917 273.35 149.85 C 274.017 149.783 274.283 149.75 274.15 149.75 C 275.417 149.75 276.517 150.2 277.45 151.1 C 278.383 152 278.85 153.017 278.85 154.15 C 278.85 157.283 276.883 158.85 272.95 158.85 L 272.15 158.85 C 271.95 158.783 271.717 158.75 271.45 158.75 L 266.65 158.05 C 265.717 157.917 264.783 157.817 263.85 157.75 C 262.917 157.683 261.95 157.65 260.95 157.65 C 259.817 157.65 258.717 157.683 257.65 157.75 C 256.583 157.817 255.583 157.917 254.65 158.05 L 249.85 158.75 C 249.583 158.75 249.383 158.783 249.25 158.85 L 248.35 158.85 C 244.417 158.85 242.45 157.283 242.45 154.15 C 242.45 151.217 244.017 149.75 247.15 149.75 C 247.017 149.75 247.3 149.783 248 149.85 C 248.7 149.917 249.25 149.95 249.65 149.95 C 250.117 150.017 250.55 150.067 250.95 150.1 C 251.35 150.133 251.617 150.15 251.75 150.15 C 253.883 150.15 254.95 148.217 254.95 144.35 L 254.95 137.65 L 255.05 129.15 L 255.05 121.05 L 254.95 105.35 C 254.95 101.683 253.15 99.85 249.55 99.85 L 246.65 99.85 C 243.117 99.85 241.35 101.65 241.35 105.25 C 241.35 106.05 241.35 106.7 241.35 107.2 C 241.35 107.7 241.383 108.117 241.45 108.45 L 241.85 111.85 C 241.917 112.183 241.95 112.583 241.95 113.05 C 241.95 113.517 241.95 113.983 241.95 114.45 C 241.95 119.383 240.15 121.85 236.55 121.85 C 233.083 121.85 231.35 119.95 231.35 116.15 C 231.35 115.883 231.35 115.483 231.35 114.95 C 231.35 114.417 231.383 113.917 231.45 113.45 C 231.45 113.25 231.467 113 231.5 112.7 C 231.533 112.4 231.55 112.083 231.55 111.75 C 231.75 108.75 231.85 106.817 231.85 105.95 C 231.85 105.217 231.833 104.45 231.8 103.65 C 231.767 102.85 231.717 101.983 231.65 101.05 L 231.35 98.15 C 231.283 97.75 231.283 97.55 231.35 97.55 C 231.417 97.55 231.383 97.25 231.25 96.65 C 231.25 93.05 233.017 91.25 236.55 91.25 C 236.95 91.25 237.7 91.267 238.8 91.3 C 239.9 91.333 241.25 91.417 242.85 91.55 L 243.65 91.55 C 244.25 91.55 245.133 91.567 246.3 91.6 C 247.467 91.633 248.917 91.683 250.65 91.75 C 252.45 91.75 254.267 91.783 256.1 91.85 C 257.933 91.917 259.75 91.95 261.55 91.95 C 261.883 91.95 262.383 91.933 263.05 91.9 C 263.717 91.867 264.517 91.85 265.45 91.85 C 266.25 91.85 267.183 91.833 268.25 91.8 C 269.317 91.767 270.517 91.75 271.85 91.75 C 272.983 91.75 275.05 91.65 278.05 91.45 C 279.183 91.317 280.317 91.233 281.45 91.2 C 282.583 91.167 283.517 91.15 284.25 91.15 C 288.517 91.15 290.65 92.983 290.65 96.65 C 290.65 97.317 290.567 98.533 290.4 100.3 C 290.233 102.067 290.083 103.917 289.95 105.85 L 289.95 106.85 C 289.95 107.25 289.95 107.833 289.95 108.6 C 289.95 109.367 290.017 110.25 290.15 111.25 C 290.283 112.583 290.383 113.683 290.45 114.55 C 290.517 115.417 290.55 116.017 290.55 116.35 C 290.55 119.817 288.75 121.55 285.15 121.55 C 281.683 121.55 279.95 119.517 279.95 115.45 C 279.95 114.317 280.05 112.583 280.25 110.25 C 280.317 109.117 280.367 108.117 280.4 107.25 C 280.433 106.383 280.45 105.683 280.45 105.15 C 280.45 101.617 278.483 99.85 274.55 99.85 L 271.85 99.85 C 270.117 99.85 268.85 100.283 268.05 101.15 C 267.25 102.017 266.783 103.317 266.65 105.05 L 266.35 111.75 L 266.25 144.35 Z M 306.549 105.75 C 306.549 101.883 305.449 99.95 303.249 99.95 C 302.649 99.95 302.082 100.017 301.549 100.15 C 300.416 100.35 299.449 100.45 298.649 100.45 C 297.382 100.45 296.299 100.033 295.399 99.2 C 294.499 98.367 294.049 97.283 294.049 95.95 C 294.049 92.817 295.982 91.25 299.849 91.25 C 300.049 91.25 300.316 91.25 300.649 91.25 C 300.982 91.25 301.282 91.283 301.549 91.35 L 306.549 92.05 C 307.482 92.183 308.432 92.283 309.399 92.35 C 310.366 92.417 311.316 92.45 312.249 92.45 C 313.116 92.45 314.099 92.4 315.199 92.3 C 316.299 92.2 317.416 92.083 318.549 91.95 L 322.849 91.35 C 323.116 91.283 323.399 91.25 323.699 91.25 C 323.999 91.25 324.249 91.25 324.449 91.25 C 328.382 91.25 330.349 92.817 330.349 95.95 C 330.349 97.283 329.882 98.367 328.949 99.2 C 328.016 100.033 326.949 100.45 325.749 100.45 C 324.816 100.45 323.849 100.35 322.849 100.15 C 322.182 100.017 321.582 99.95 321.049 99.95 C 318.916 99.95 317.849 101.883 317.849 105.75 L 317.849 144.25 C 317.849 148.117 318.916 150.05 321.049 150.05 C 321.182 150.05 321.332 150.05 321.499 150.05 C 321.666 150.05 321.916 150.017 322.249 149.95 L 322.949 149.95 L 322.849 149.95 C 324.049 149.75 325.016 149.65 325.749 149.65 C 328.816 149.65 330.349 151.117 330.349 154.05 C 330.349 157.25 328.382 158.85 324.449 158.85 L 323.549 158.85 C 323.416 158.783 323.216 158.75 322.949 158.75 L 317.849 157.95 C 316.982 157.817 316.132 157.717 315.299 157.65 C 314.466 157.583 313.649 157.55 312.849 157.55 C 311.516 157.55 310.282 157.6 309.149 157.7 C 308.016 157.8 306.916 157.917 305.849 158.05 L 301.449 158.75 C 301.182 158.75 300.949 158.783 300.749 158.85 L 299.749 158.85 C 295.949 158.85 294.049 157.25 294.049 154.05 C 294.049 151.117 295.582 149.65 298.649 149.65 C 298.716 149.65 298.816 149.667 298.949 149.7 C 299.082 149.733 299.249 149.75 299.449 149.75 C 299.649 149.75 299.916 149.767 300.249 149.8 C 300.582 149.833 300.949 149.85 301.349 149.85 C 301.682 149.917 301.999 149.967 302.299 150 C 302.599 150.033 302.916 150.05 303.249 150.05 C 305.449 150.05 306.549 148.117 306.549 144.25 L 306.549 105.75 Z M 363.549 160.45 C 354.549 160.45 347.382 157.217 342.049 150.75 C 336.916 144.283 334.349 135.683 334.349 124.95 C 334.349 114.15 336.949 105.55 342.149 99.15 C 347.416 92.75 354.716 89.55 364.049 89.55 C 373.049 89.55 380.116 92.65 385.249 98.85 C 390.516 105.05 393.149 113.317 393.149 123.65 C 393.149 134.85 390.482 143.75 385.149 150.35 C 380.082 157.083 372.882 160.45 363.549 160.45 Z M 363.749 99.15 C 358.082 99.15 353.716 101.383 350.649 105.85 C 347.582 110.317 346.049 116.65 346.049 124.85 C 346.049 133.183 347.582 139.6 350.649 144.1 C 353.716 148.6 358.049 150.85 363.649 150.85 C 368.982 150.85 373.249 148.583 376.449 144.05 C 379.782 139.45 381.449 132.95 381.449 124.55 C 381.449 116.35 379.932 110.067 376.899 105.7 C 373.866 101.333 369.482 99.15 363.749 99.15 Z M 427.85 96.45 L 427.75 96.35 C 429.883 100.817 431.867 104.95 433.7 108.75 C 435.533 112.55 437.35 116.267 439.15 119.9 C 440.95 123.533 442.767 127.25 444.6 131.05 C 446.433 134.85 448.417 138.983 450.55 143.45 L 450.55 111.85 C 450.55 106.917 450.517 104.283 450.45 103.95 C 449.983 101.483 448.983 100.15 447.45 99.95 C 447.383 100.017 447.067 100.067 446.5 100.1 C 445.933 100.133 445.483 100.183 445.15 100.25 C 444.683 100.317 444.233 100.367 443.8 100.4 C 443.367 100.433 442.983 100.45 442.65 100.45 C 441.383 100.45 440.283 100 439.35 99.1 C 438.417 98.2 437.95 97.183 437.95 96.05 C 437.95 92.85 439.95 91.25 443.95 91.25 C 444.283 91.25 444.533 91.233 444.7 91.2 C 444.867 91.167 445.117 91.217 445.45 91.35 L 449.65 91.95 C 450.583 92.083 451.5 92.183 452.4 92.25 C 453.3 92.317 454.117 92.35 454.85 92.35 C 456.317 92.35 458.45 92.15 461.25 91.75 L 464.65 91.25 C 464.917 91.25 465.15 91.217 465.35 91.15 L 466.15 91.15 C 470.017 91.15 471.95 92.717 471.95 95.85 C 471.95 98.917 470.117 100.45 466.45 100.45 C 466.117 100.45 465.867 100.467 465.7 100.5 C 465.533 100.533 465.35 100.483 465.15 100.35 L 464.45 100.35 C 463.183 100.35 462.367 100.683 462 101.35 C 461.633 102.017 461.383 103.483 461.25 105.75 C 461.25 106.683 461.217 107.6 461.15 108.5 C 461.083 109.4 461.05 110.317 461.05 111.25 L 460.85 121.05 L 460.85 146.65 C 460.85 151.583 460.25 155.033 459.05 157 C 457.85 158.967 455.717 159.95 452.65 159.95 C 448.85 159.95 445.717 157.45 443.25 152.45 L 421.15 106.65 L 421.15 144.25 C 421.15 148.117 422.25 150.05 424.45 150.05 C 424.583 150.05 424.85 150.033 425.25 150 C 425.65 149.967 426.083 149.95 426.55 149.95 C 426.95 149.883 427.5 149.817 428.2 149.75 C 428.9 149.683 429.183 149.65 429.05 149.65 C 432.183 149.65 433.75 151.15 433.75 154.15 C 433.75 157.283 431.75 158.85 427.75 158.85 L 427.05 158.85 C 426.917 158.783 426.767 158.75 426.6 158.75 C 426.433 158.75 426.317 158.75 426.25 158.75 L 422.35 158.15 L 422.45 158.15 C 421.317 158.017 420.25 157.9 419.25 157.8 C 418.25 157.7 417.317 157.65 416.45 157.65 C 415.783 157.65 414.9 157.7 413.8 157.8 C 412.7 157.9 411.517 158.017 410.25 158.15 L 405.55 158.75 C 405.283 158.75 405.05 158.783 404.85 158.85 L 403.85 158.85 C 400.05 158.85 398.15 157.283 398.15 154.15 C 398.15 151.283 399.717 149.85 402.85 149.85 C 402.917 149.85 403.017 149.867 403.15 149.9 C 403.283 149.933 403.45 149.95 403.65 149.95 L 405.55 149.95 C 406.15 150.15 406.783 150.25 407.45 150.25 C 409.583 150.25 410.65 148.317 410.65 144.45 L 410.65 137.75 L 410.75 129.25 L 410.75 121.05 L 410.65 105.85 C 410.65 101.917 409.55 99.95 407.35 99.95 C 407.017 99.95 406.683 99.983 406.35 100.05 C 406.217 100.05 406.1 100.067 406 100.1 C 405.9 100.133 405.783 100.15 405.65 100.15 C 405.117 100.283 404.583 100.367 404.05 100.4 C 403.517 100.433 403.083 100.45 402.75 100.45 C 399.617 100.45 398.05 98.95 398.05 95.95 C 398.05 92.817 399.95 91.25 403.75 91.25 C 403.95 91.25 404.217 91.25 404.55 91.25 C 404.883 91.25 405.217 91.283 405.55 91.35 C 407.083 91.483 408.467 91.6 409.7 91.7 C 410.933 91.8 411.95 91.85 412.75 91.85 C 413.55 91.85 414.917 91.75 416.85 91.55 C 418.717 91.35 420.217 91.25 421.35 91.25 C 422.75 91.25 423.867 91.483 424.7 91.95 C 425.533 92.417 426.217 93.117 426.75 94.05 L 427.85 96.45 Z" style="fill: rgb(246, 239, 239); line-height: 97.4734px; white-space: pre;"/>
</svg>