<?xml version="1.0" encoding="utf-8"?>
<svg aria-hidden="true" focusable="false" data-prefix="fas" data-icon="square" class="svg-inline--fa fa-square fa-w-14" role="img" viewBox="0 0 500 250" xmlns="http://www.w3.org/2000/svg">
  <path d="M 446.429 0 L 50 0 C 25 0 0 25 0 50 L 0 200 C 0 225 23.995 250 53.571 250 L 446.429 250 C 476.005 250 500 225 500 200 L 500 50 C 500 25 476.005 0 446.429 0 Z" style="fill: rgb(0, 64, 96);"/>
  <path d="M 107.621 85.03 L 107.481 84.889 C 110.468 91.143 113.245 96.929 115.811 102.25 C 118.378 107.57 120.921 112.773 123.441 117.86 C 125.961 122.946 128.505 128.15 131.071 133.47 C 133.638 138.79 136.414 144.577 139.401 150.829 L 139.401 106.589 C 139.401 99.682 139.354 95.996 139.26 95.53 C 138.607 92.076 137.207 90.209 135.061 89.93 C 134.967 90.023 134.524 90.093 133.731 90.139 C 132.937 90.186 132.307 90.256 131.841 90.349 C 131.187 90.442 130.557 90.512 129.95 90.56 C 129.344 90.607 128.808 90.63 128.341 90.63 C 126.568 90.63 125.028 90 123.721 88.74 C 122.414 87.48 121.761 86.056 121.761 84.47 C 121.761 79.99 124.561 77.75 130.161 77.75 C 130.627 77.75 130.978 77.727 131.211 77.679 C 131.444 77.632 131.794 77.703 132.261 77.89 L 138.141 78.73 C 139.448 78.916 140.731 79.056 141.99 79.149 C 143.251 79.242 144.394 79.289 145.421 79.289 C 147.474 79.289 150.461 79.009 154.381 78.449 L 159.141 77.75 C 159.514 77.75 159.841 77.703 160.121 77.609 L 161.241 77.609 C 166.655 77.609 169.361 79.803 169.361 84.19 C 169.361 88.483 166.794 90.63 161.661 90.63 C 161.194 90.63 160.844 90.653 160.61 90.699 C 160.378 90.746 160.121 90.676 159.841 90.489 L 158.861 90.489 C 157.087 90.489 155.944 90.956 155.431 91.889 C 154.918 92.823 154.568 94.876 154.381 98.05 C 154.381 99.356 154.334 100.639 154.241 101.899 C 154.148 103.16 154.101 104.443 154.101 105.749 L 153.822 119.469 L 153.822 155.31 C 153.822 162.217 152.981 167.047 151.3 169.799 C 149.621 172.553 146.634 173.93 142.341 173.93 C 137.02 173.93 132.634 170.43 129.181 163.43 L 98.241 99.309 L 98.241 151.95 C 98.241 157.363 99.781 160.07 102.86 160.07 C 103.048 160.07 103.421 160.047 103.981 159.999 C 104.541 159.952 105.148 159.929 105.801 159.929 C 106.361 159.836 107.131 159.743 108.11 159.649 C 109.091 159.556 109.488 159.51 109.3 159.51 C 113.688 159.51 115.882 161.61 115.882 165.81 C 115.882 170.196 113.081 172.39 107.481 172.39 L 106.501 172.39 C 106.315 172.297 106.105 172.25 105.872 172.25 C 105.638 172.25 105.474 172.25 105.38 172.25 L 99.921 171.41 L 100.061 171.41 C 98.474 171.223 96.981 171.059 95.58 170.92 C 94.181 170.78 92.874 170.71 91.66 170.71 C 90.728 170.71 89.491 170.78 87.95 170.92 C 86.411 171.059 84.754 171.223 82.981 171.41 L 76.402 172.25 C 76.028 172.25 75.701 172.297 75.42 172.39 L 74.021 172.39 C 68.701 172.39 66.041 170.196 66.041 165.81 C 66.041 161.796 68.235 159.789 72.621 159.789 C 72.714 159.789 72.854 159.813 73.04 159.86 C 73.228 159.906 73.461 159.929 73.741 159.929 L 76.402 159.929 C 77.241 160.209 78.128 160.35 79.061 160.35 C 82.047 160.35 83.54 157.643 83.54 152.23 L 83.54 142.849 L 83.682 130.95 L 83.682 119.469 L 83.54 98.19 C 83.54 92.683 82.001 89.93 78.921 89.93 C 78.455 89.93 77.988 89.977 77.521 90.07 C 77.335 90.07 77.171 90.093 77.031 90.139 C 76.891 90.186 76.728 90.209 76.541 90.209 C 75.794 90.396 75.047 90.512 74.301 90.56 C 73.555 90.607 72.948 90.63 72.481 90.63 C 68.095 90.63 65.902 88.53 65.902 84.33 C 65.902 79.943 68.561 77.75 73.88 77.75 C 74.161 77.75 74.534 77.75 75.001 77.75 C 75.468 77.75 75.935 77.797 76.402 77.89 C 78.548 78.076 80.485 78.239 82.211 78.38 C 83.938 78.52 85.361 78.59 86.481 78.59 C 87.601 78.59 89.514 78.45 92.221 78.169 C 94.834 77.89 96.934 77.75 98.521 77.75 C 100.481 77.75 102.045 78.077 103.211 78.73 C 104.378 79.383 105.334 80.363 106.08 81.669 L 107.621 85.03 Z M 214.44 174.63 C 201.84 174.63 191.806 170.103 184.341 161.05 C 177.153 151.996 173.56 139.956 173.56 124.929 C 173.56 109.81 177.2 97.769 184.48 88.809 C 191.853 79.85 202.073 75.37 215.14 75.37 C 227.74 75.37 237.633 79.71 244.821 88.39 C 252.193 97.07 255.88 108.643 255.88 123.11 C 255.88 138.79 252.146 151.249 244.679 160.489 C 237.586 169.916 227.506 174.63 214.44 174.63 Z M 214.72 88.809 C 206.787 88.809 200.674 91.936 196.381 98.19 C 192.087 104.443 189.941 113.31 189.941 124.79 C 189.941 136.457 192.087 145.44 196.381 151.74 C 200.674 158.04 206.74 161.19 214.58 161.19 C 222.047 161.19 228.02 158.016 232.5 151.669 C 237.167 145.229 239.5 136.129 239.5 124.369 C 239.5 112.889 237.377 104.093 233.131 97.979 C 228.883 91.866 222.746 88.809 214.72 88.809 Z M 310.76 152.09 C 310.76 157.503 312.299 160.21 315.379 160.21 C 315.566 160.21 315.963 160.186 316.569 160.139 C 317.176 160.093 317.759 160.023 318.319 159.929 C 318.972 159.929 319.766 159.882 320.699 159.789 C 321.633 159.696 322.006 159.649 321.819 159.649 C 323.593 159.649 325.133 160.279 326.439 161.54 C 327.746 162.8 328.4 164.223 328.4 165.81 C 328.4 170.196 325.646 172.39 320.139 172.39 L 319.019 172.39 C 318.739 172.297 318.412 172.25 318.04 172.25 L 311.319 171.269 C 310.012 171.082 308.706 170.943 307.398 170.85 C 306.092 170.756 304.739 170.71 303.338 170.71 C 301.753 170.71 300.213 170.756 298.719 170.85 C 297.226 170.943 295.826 171.082 294.52 171.269 L 287.799 172.25 C 287.425 172.25 287.145 172.297 286.959 172.39 L 285.7 172.39 C 280.192 172.39 277.439 170.196 277.439 165.81 C 277.439 161.703 279.632 159.649 284.02 159.649 C 283.833 159.649 284.229 159.696 285.208 159.789 C 286.189 159.882 286.959 159.929 287.519 159.929 C 288.172 160.023 288.779 160.093 289.339 160.139 C 289.899 160.186 290.272 160.21 290.458 160.21 C 293.446 160.21 294.939 157.503 294.939 152.09 L 294.939 142.709 L 295.079 130.809 L 295.079 119.469 L 294.939 97.489 C 294.939 92.357 292.419 89.79 287.38 89.79 L 283.32 89.79 C 278.372 89.79 275.898 92.31 275.898 97.35 C 275.898 98.47 275.898 99.38 275.898 100.08 C 275.898 100.78 275.946 101.363 276.04 101.829 L 276.599 106.589 C 276.692 107.056 276.738 107.616 276.738 108.269 C 276.738 108.923 276.738 109.577 276.738 110.23 C 276.738 117.137 274.219 120.59 269.179 120.59 C 264.326 120.59 261.899 117.93 261.899 112.61 C 261.899 112.236 261.899 111.676 261.899 110.93 C 261.899 110.183 261.946 109.482 262.039 108.829 C 262.039 108.55 262.062 108.2 262.109 107.779 C 262.155 107.359 262.178 106.916 262.178 106.449 C 262.459 102.249 262.599 99.542 262.599 98.329 C 262.599 97.303 262.576 96.229 262.529 95.109 C 262.482 93.989 262.413 92.776 262.32 91.47 L 261.899 87.41 C 261.806 86.85 261.806 86.57 261.899 86.57 C 261.992 86.57 261.946 86.15 261.759 85.31 C 261.759 80.27 264.232 77.75 269.179 77.75 C 269.739 77.75 270.789 77.773 272.33 77.819 C 273.869 77.866 275.759 77.983 277.999 78.169 L 279.118 78.169 C 279.959 78.169 281.196 78.193 282.83 78.24 C 284.463 78.286 286.493 78.356 288.92 78.449 C 291.439 78.449 293.982 78.496 296.55 78.59 C 299.116 78.683 301.659 78.73 304.178 78.73 C 304.645 78.73 305.345 78.706 306.279 78.659 C 307.213 78.613 308.332 78.59 309.639 78.59 C 310.759 78.59 312.065 78.566 313.559 78.519 C 315.052 78.472 316.732 78.449 318.599 78.449 C 320.185 78.449 323.079 78.309 327.279 78.03 C 328.866 77.843 330.452 77.727 332.039 77.679 C 333.626 77.632 334.933 77.609 335.959 77.609 C 341.933 77.609 344.919 80.176 344.919 85.31 C 344.919 86.243 344.802 87.947 344.569 90.42 C 344.336 92.893 344.126 95.483 343.939 98.19 L 343.939 99.59 C 343.939 100.15 343.939 100.966 343.939 102.039 C 343.939 103.113 344.033 104.35 344.219 105.749 C 344.405 107.616 344.546 109.156 344.64 110.369 C 344.733 111.583 344.779 112.423 344.779 112.889 C 344.779 117.743 342.259 120.169 337.219 120.169 C 332.365 120.169 329.939 117.323 329.939 111.63 C 329.939 110.043 330.079 107.617 330.359 104.35 C 330.452 102.763 330.522 101.363 330.57 100.149 C 330.616 98.936 330.639 97.956 330.639 97.21 C 330.639 92.263 327.886 89.79 322.379 89.79 L 318.599 89.79 C 316.172 89.79 314.399 90.397 313.279 91.61 C 312.16 92.823 311.506 94.643 311.319 97.07 L 310.899 106.449 L 310.76 152.09 Z M 367.459 98.05 C 367.459 92.637 365.919 89.93 362.839 89.93 C 362.186 89.93 361.392 90.023 360.459 90.209 C 359.058 90.49 357.705 90.63 356.399 90.63 C 354.626 90.63 353.109 90.047 351.849 88.88 C 350.589 87.713 349.959 86.196 349.959 84.33 C 349.959 79.943 352.619 77.75 357.939 77.75 C 358.032 77.75 358.312 77.75 358.779 77.75 C 359.246 77.75 359.712 77.797 360.179 77.89 L 370.959 78.73 C 373.386 78.916 375.182 79.079 376.349 79.22 C 377.516 79.36 378.752 79.383 380.058 79.289 L 412.539 78.309 C 413.006 78.309 415.293 78.169 419.399 77.89 L 419.259 77.89 C 420.005 77.797 420.705 77.75 421.36 77.75 C 422.013 77.75 422.666 77.75 423.319 77.75 C 429.573 77.75 432.699 80.457 432.699 85.87 C 432.699 86.149 432.652 86.919 432.558 88.179 C 432.465 89.44 432.325 91.003 432.139 92.869 C 431.953 94.176 431.836 95.53 431.789 96.929 C 431.742 98.329 431.718 99.543 431.718 100.57 C 431.718 102.063 431.742 103.346 431.789 104.419 C 431.836 105.493 431.906 106.31 431.999 106.87 C 432.186 108.176 432.325 109.343 432.419 110.369 C 432.512 111.396 432.558 112.283 432.558 113.029 C 432.558 117.603 430.179 119.89 425.42 119.89 C 420.659 119.89 418.279 116.903 418.279 110.93 L 418.279 103.929 C 418.279 97.21 417.159 93.383 414.92 92.45 L 415.059 92.45 C 412.725 91.516 406.985 91.049 397.838 91.049 C 392.052 91.049 388.459 91.19 387.059 91.47 C 384.352 92.403 382.999 94.456 382.999 97.629 L 382.999 106.87 C 382.906 107.523 382.859 108.06 382.859 108.479 C 382.859 108.899 382.859 109.202 382.859 109.39 L 382.859 111.07 C 382.859 113.59 383.046 115.036 383.42 115.409 C 384.352 115.596 385.285 115.69 386.219 115.69 L 391.819 115.69 C 395.832 115.69 397.885 114.476 397.98 112.049 C 397.885 111.863 397.815 111.303 397.769 110.369 C 397.722 109.436 397.652 108.643 397.559 107.989 L 397.559 108.129 C 397.279 106.449 397.14 104.723 397.14 102.95 C 397.14 98.19 399.519 95.81 404.278 95.81 C 409.039 95.81 411.419 98.329 411.419 103.369 C 411.419 103.836 411.348 104.816 411.208 106.31 C 411.069 107.803 410.813 109.716 410.439 112.049 C 409.879 116.156 409.599 119.703 409.599 122.689 C 409.599 123.53 409.646 124.766 409.739 126.399 C 409.832 128.033 409.972 129.923 410.159 132.07 L 410.86 136.549 C 411.139 138.509 411.279 140.19 411.279 141.59 C 411.279 146.07 408.899 148.309 404.139 148.309 C 399.473 148.309 397.14 145.79 397.14 140.75 C 397.14 140.283 397.163 139.63 397.209 138.789 C 397.256 137.95 397.326 137.156 397.419 136.409 C 397.419 136.036 397.442 135.523 397.488 134.869 C 397.535 134.216 397.582 133.633 397.629 133.12 C 397.676 132.606 397.722 132.232 397.769 131.999 C 397.815 131.766 397.838 131.836 397.838 132.209 C 397.838 129.596 396.065 128.289 392.519 128.289 L 386.359 128.289 C 384.772 128.289 383.815 128.616 383.489 129.269 C 383.162 129.923 382.999 131.323 382.999 133.47 L 382.999 141.869 C 382.999 142.616 382.999 143.433 382.999 144.32 C 382.999 145.207 383.045 146.256 383.139 147.47 C 383.232 148.963 383.278 150.2 383.278 151.179 C 383.278 152.159 383.278 152.882 383.278 153.349 C 383.373 156.616 383.793 158.436 384.539 158.809 C 385.006 159.183 386.873 159.37 390.139 159.37 L 408.48 159.37 C 412.866 159.37 415.876 158.693 417.509 157.34 C 419.142 155.987 419.959 153.536 419.959 149.989 C 419.959 149.523 419.959 148.963 419.959 148.309 C 419.959 147.656 419.913 146.91 419.819 146.069 C 419.819 145.79 419.796 145.487 419.749 145.16 C 419.702 144.833 419.678 144.53 419.678 144.25 C 419.585 143.13 419.539 141.986 419.539 140.819 C 419.539 139.653 419.539 138.743 419.539 138.089 C 419.539 132.769 421.919 130.109 426.679 130.109 C 431.625 130.109 434.098 132.816 434.098 138.23 C 434.098 138.79 434.098 139.49 434.098 140.329 C 434.098 141.17 434.052 142.103 433.959 143.13 C 433.959 143.41 433.936 143.806 433.89 144.32 C 433.842 144.833 433.819 145.276 433.819 145.65 C 433.819 146.117 433.795 146.583 433.748 147.049 C 433.702 147.516 433.679 147.982 433.679 148.449 C 433.586 149.476 433.539 150.363 433.539 151.109 C 433.539 151.856 433.539 152.51 433.539 153.07 C 433.539 153.63 433.539 154.376 433.539 155.31 C 433.539 156.243 433.586 157.362 433.679 158.67 C 433.679 159.043 433.702 159.346 433.748 159.579 C 433.795 159.812 433.819 160.023 433.819 160.21 C 433.912 160.956 433.959 161.679 433.959 162.38 C 433.959 163.08 433.959 163.663 433.959 164.13 C 433.959 169.636 431.159 172.39 425.559 172.39 C 425.186 172.39 424.672 172.39 424.019 172.39 C 423.366 172.39 422.806 172.343 422.339 172.25 C 422.059 172.25 421.755 172.226 421.429 172.179 C 421.102 172.133 420.799 172.11 420.52 172.11 C 418.839 171.83 417.299 171.666 415.899 171.619 C 414.499 171.573 413.075 171.55 411.629 171.55 C 410.182 171.55 408.619 171.573 406.939 171.619 C 405.259 171.666 403.346 171.69 401.2 171.69 C 398.026 171.596 395.063 171.526 392.309 171.479 C 389.555 171.433 387.012 171.41 384.679 171.41 C 376.278 171.41 368.018 171.69 359.898 172.25 C 359.526 172.25 359.246 172.297 359.058 172.39 L 357.939 172.39 C 352.619 172.39 349.959 170.15 349.959 165.67 C 349.959 161.563 352.105 159.51 356.399 159.51 C 356.492 159.51 356.632 159.533 356.82 159.579 C 357.006 159.626 357.286 159.649 357.659 159.649 C 357.939 159.649 358.312 159.673 358.779 159.72 C 359.246 159.766 359.712 159.789 360.179 159.789 C 360.646 159.882 361.112 159.952 361.578 159.999 C 362.045 160.047 362.465 160.07 362.839 160.07 C 365.919 160.07 367.459 157.363 367.459 151.95 L 367.459 98.05 Z" style="fill: rgb(246, 239, 239); white-space: pre;"/>
</svg>