<?xml version="1.0" encoding="utf-8"?>
<svg viewBox="0 0 500 250" xmlns="http://www.w3.org/2000/svg">
  <path d="M 446.429 0 L 50 0 C 25 0 0 25 0 50 L 0 200 C 0 225 23.995 250 53.571 250 L 446.429 250 C 476.005 250 500 225 500 200 L 500 50 C 500 25 476.005 0 446.429 0 Z" style="fill: rgb(66, 175, 70);"/>
  <path d="M 180.776 154.025 C 180.776 159.825 182.426 162.725 185.726 162.725 C 185.926 162.725 186.351 162.7 187.001 162.65 C 187.651 162.6 188.276 162.525 188.876 162.425 C 189.576 162.425 190.426 162.375 191.426 162.275 C 192.426 162.175 192.826 162.125 192.626 162.125 C 194.526 162.125 196.176 162.8 197.576 164.15 C 198.976 165.5 199.676 167.025 199.676 168.725 C 199.676 173.425 196.726 175.775 190.826 175.775 L 189.626 175.775 C 189.326 175.675 188.976 175.625 188.576 175.625 L 181.376 174.575 C 179.976 174.375 178.576 174.225 177.176 174.125 C 175.776 174.025 174.326 173.975 172.826 173.975 C 171.126 173.975 169.476 174.025 167.876 174.125 C 166.276 174.225 164.776 174.375 163.376 174.575 L 156.176 175.625 C 155.776 175.625 155.476 175.675 155.276 175.775 L 153.926 175.775 C 148.026 175.775 145.076 173.425 145.076 168.725 C 145.076 164.325 147.426 162.125 152.126 162.125 C 151.926 162.125 152.351 162.175 153.401 162.275 C 154.451 162.375 155.276 162.425 155.876 162.425 C 156.576 162.525 157.226 162.6 157.826 162.65 C 158.426 162.7 158.826 162.725 159.026 162.725 C 162.226 162.725 163.826 159.825 163.826 154.025 L 163.826 143.975 L 163.976 131.225 L 163.976 119.075 L 163.826 95.525 C 163.826 90.025 161.126 87.275 155.726 87.275 L 151.376 87.275 C 146.076 87.275 143.426 89.975 143.426 95.375 C 143.426 96.575 143.426 97.55 143.426 98.3 C 143.426 99.05 143.476 99.675 143.576 100.175 L 144.176 105.275 C 144.276 105.775 144.326 106.375 144.326 107.075 C 144.326 107.775 144.326 108.475 144.326 109.175 C 144.326 116.575 141.626 120.275 136.226 120.275 C 131.026 120.275 128.426 117.425 128.426 111.725 C 128.426 111.325 128.426 110.725 128.426 109.925 C 128.426 109.125 128.476 108.375 128.576 107.675 C 128.576 107.375 128.601 107 128.651 106.55 C 128.701 106.1 128.726 105.625 128.726 105.125 C 129.026 100.625 129.176 97.725 129.176 96.425 C 129.176 95.325 129.151 94.175 129.101 92.975 C 129.051 91.775 128.976 90.475 128.876 89.075 L 128.426 84.725 C 128.326 84.125 128.326 83.825 128.426 83.825 C 128.526 83.825 128.476 83.375 128.276 82.475 C 128.276 77.075 130.926 74.375 136.226 74.375 C 136.826 74.375 137.951 74.4 139.601 74.45 C 141.251 74.5 143.276 74.625 145.676 74.825 L 146.876 74.825 C 147.776 74.825 149.101 74.85 150.851 74.9 C 152.601 74.95 154.776 75.025 157.376 75.125 C 160.076 75.125 162.801 75.175 165.551 75.275 C 168.301 75.375 171.026 75.425 173.726 75.425 C 174.226 75.425 174.976 75.4 175.976 75.35 C 176.976 75.3 178.176 75.275 179.576 75.275 C 180.776 75.275 182.176 75.25 183.776 75.2 C 185.376 75.15 187.176 75.125 189.176 75.125 C 190.876 75.125 193.976 74.975 198.476 74.675 C 200.176 74.475 201.876 74.35 203.576 74.3 C 205.276 74.25 206.676 74.225 207.776 74.225 C 214.176 74.225 217.376 76.975 217.376 82.475 C 217.376 83.475 217.251 85.3 217.001 87.95 C 216.751 90.6 216.526 93.375 216.326 96.275 L 216.326 97.775 C 216.326 98.375 216.326 99.25 216.326 100.4 C 216.326 101.55 216.426 102.875 216.626 104.375 C 216.826 106.375 216.976 108.025 217.076 109.325 C 217.176 110.625 217.226 111.525 217.226 112.025 C 217.226 117.225 214.526 119.825 209.126 119.825 C 203.926 119.825 201.326 116.775 201.326 110.675 C 201.326 108.975 201.476 106.375 201.776 102.875 C 201.876 101.175 201.951 99.675 202.001 98.375 C 202.051 97.075 202.076 96.025 202.076 95.225 C 202.076 89.925 199.126 87.275 193.226 87.275 L 189.176 87.275 C 186.576 87.275 184.676 87.925 183.476 89.225 C 182.276 90.525 181.576 92.475 181.376 95.075 L 180.926 105.125 L 180.776 154.025 Z M 241.225 96.125 C 241.225 90.325 239.575 87.425 236.275 87.425 C 235.375 87.425 234.525 87.525 233.725 87.725 C 232.025 88.025 230.575 88.175 229.375 88.175 C 227.475 88.175 225.85 87.55 224.5 86.3 C 223.15 85.05 222.475 83.425 222.475 81.425 C 222.475 76.725 225.375 74.375 231.175 74.375 C 231.475 74.375 231.875 74.375 232.375 74.375 C 232.875 74.375 233.325 74.425 233.725 74.525 L 241.225 75.575 C 242.625 75.775 244.05 75.925 245.5 76.025 C 246.95 76.125 248.375 76.175 249.775 76.175 C 251.075 76.175 252.55 76.1 254.2 75.95 C 255.85 75.8 257.525 75.625 259.225 75.425 L 265.675 74.525 C 266.075 74.425 266.5 74.375 266.95 74.375 C 267.4 74.375 267.775 74.375 268.075 74.375 C 273.975 74.375 276.925 76.725 276.925 81.425 C 276.925 83.425 276.225 85.05 274.825 86.3 C 273.425 87.55 271.825 88.175 270.025 88.175 C 268.625 88.175 267.175 88.025 265.675 87.725 C 264.675 87.525 263.775 87.425 262.975 87.425 C 259.775 87.425 258.175 90.325 258.175 96.125 L 258.175 153.875 C 258.175 159.675 259.775 162.575 262.975 162.575 C 263.175 162.575 263.4 162.575 263.65 162.575 C 263.9 162.575 264.275 162.525 264.775 162.425 L 265.825 162.425 L 265.675 162.425 C 267.475 162.125 268.925 161.975 270.025 161.975 C 274.625 161.975 276.925 164.175 276.925 168.575 C 276.925 173.375 273.975 175.775 268.075 175.775 L 266.725 175.775 C 266.525 175.675 266.225 175.625 265.825 175.625 L 258.175 174.425 C 256.875 174.225 255.6 174.075 254.35 173.975 C 253.1 173.875 251.875 173.825 250.675 173.825 C 248.675 173.825 246.825 173.9 245.125 174.05 C 243.425 174.2 241.775 174.375 240.175 174.575 L 233.575 175.625 C 233.175 175.625 232.825 175.675 232.525 175.775 L 231.025 175.775 C 225.325 175.775 222.475 173.375 222.475 168.575 C 222.475 164.175 224.775 161.975 229.375 161.975 C 229.475 161.975 229.625 162 229.825 162.05 C 230.025 162.1 230.275 162.125 230.575 162.125 C 230.875 162.125 231.275 162.15 231.775 162.2 C 232.275 162.25 232.825 162.275 233.425 162.275 C 233.925 162.375 234.4 162.45 234.85 162.5 C 235.3 162.55 235.775 162.575 236.275 162.575 C 239.575 162.575 241.225 159.675 241.225 153.875 L 241.225 96.125 Z M 298.824 96.125 C 298.824 90.325 297.174 87.425 293.874 87.425 C 293.674 87.425 293.474 87.425 293.274 87.425 C 293.074 87.425 292.724 87.475 292.224 87.575 C 292.024 87.575 291.824 87.6 291.624 87.65 C 291.424 87.7 291.224 87.725 291.024 87.725 L 291.324 87.725 C 289.524 88.025 288.074 88.175 286.974 88.175 C 282.274 88.175 279.924 85.925 279.924 81.425 C 279.924 76.725 282.874 74.375 288.774 74.375 C 289.274 74.375 289.724 74.375 290.124 74.375 C 290.524 74.375 290.924 74.425 291.324 74.525 L 291.174 74.525 L 298.224 75.425 C 300.624 75.725 303.424 75.875 306.624 75.875 C 308.824 75.875 311.674 75.725 315.174 75.425 L 315.024 75.425 C 318.924 75.025 322.399 74.75 325.449 74.6 C 328.499 74.45 331.074 74.375 333.174 74.375 C 339.774 74.375 345.224 74.875 349.524 75.875 C 352.624 76.775 355.549 78.1 358.299 79.85 C 361.049 81.6 363.399 83.675 365.349 86.075 C 367.299 88.475 368.849 91.15 369.999 94.1 C 371.149 97.05 371.724 100.175 371.724 103.475 C 371.724 113.175 368.449 120.6 361.899 125.75 C 355.349 130.9 345.774 133.475 333.174 133.475 L 322.824 133.475 C 321.324 133.475 320.024 133.475 318.924 133.475 C 317.824 133.475 317.024 133.425 316.524 133.325 C 316.124 133.425 315.899 133.6 315.849 133.85 C 315.799 134.1 315.774 134.725 315.774 135.725 L 315.774 138.575 C 315.774 150.775 316.074 157.975 316.674 160.175 C 317.074 161.775 318.424 162.575 320.724 162.575 C 321.224 162.575 321.674 162.55 322.074 162.5 C 322.474 162.45 322.924 162.375 323.424 162.275 C 323.924 162.275 324.449 162.25 324.999 162.2 C 325.549 162.15 325.974 162.125 326.274 162.125 C 326.574 162.125 326.824 162.1 327.024 162.05 C 327.224 162 327.424 161.975 327.624 161.975 C 332.224 161.975 334.524 164.175 334.524 168.575 C 334.524 173.375 331.474 175.775 325.374 175.775 C 325.174 175.675 324.974 175.625 324.774 175.625 C 324.574 175.625 324.349 175.625 324.099 175.625 C 323.849 175.625 323.624 175.575 323.424 175.475 L 316.224 174.425 C 314.224 174.125 311.324 173.975 307.524 173.975 C 304.324 173.975 301.674 174.125 299.574 174.425 L 291.174 175.625 C 290.874 175.625 290.574 175.675 290.274 175.775 L 289.074 175.775 C 283.074 175.775 280.074 173.425 280.074 168.725 C 280.074 166.725 280.749 165.1 282.099 163.85 C 283.449 162.6 285.074 161.975 286.974 161.975 C 288.374 161.975 289.824 162.125 291.324 162.425 C 291.724 162.425 292.124 162.45 292.524 162.5 C 292.924 162.55 293.374 162.575 293.874 162.575 C 297.174 162.575 298.824 159.675 298.824 153.875 L 298.824 96.125 Z M 316.374 89.825 C 315.974 90.325 315.774 92.575 315.774 96.575 L 315.774 117.875 C 315.774 119.175 316.974 119.975 319.374 120.275 C 319.974 120.275 320.474 120.3 320.874 120.35 C 321.274 120.4 321.724 120.425 322.224 120.425 C 322.724 120.425 323.349 120.4 324.099 120.35 C 324.849 120.3 325.874 120.275 327.174 120.275 C 330.274 120.175 333.224 120.025 336.024 119.825 C 338.824 119.625 341.374 119.275 343.674 118.775 C 350.974 116.875 354.624 111.925 354.624 103.925 C 354.624 93.025 347.624 87.575 333.624 87.575 C 323.124 87.575 317.374 88.325 316.374 89.825 Z" style="fill: rgb(250, 249, 249); white-space: pre;"/>
</svg>