<?xml version="1.0" encoding="utf-8"?>
<svg viewBox="0 0 500 250" xmlns="http://www.w3.org/2000/svg">
  <path d="M 446.429 0 L 50 0 C 25 0 0 25 0 50 L 0 200 C 0 225 23.995 250 53.571 250 L 446.429 250 C 476.005 250 500 225 500 200 L 500 50 C 500 25 476.005 0 446.429 0 Z" style="fill: rgb(214, 118, 0);"/>
  <path d="M 50.357 109.205 L 55.937 138.095 L 63.407 100.835 C 64.307 96.275 66.737 93.995 70.697 93.995 C 74.717 93.995 77.147 96.065 77.987 100.205 L 77.987 100.115 C 78.707 103.955 79.352 107.405 79.922 110.465 C 80.492 113.525 81.062 116.51 81.632 119.42 C 82.202 122.33 82.772 125.315 83.342 128.375 C 83.912 131.435 84.557 134.885 85.277 138.725 L 91.037 110.555 C 91.577 108.035 91.847 106.175 91.847 104.975 C 91.847 103.415 91.127 102.635 89.687 102.635 C 89.387 102.635 89.072 102.65 88.742 102.68 C 88.412 102.71 88.037 102.725 87.617 102.725 C 87.197 102.785 86.762 102.815 86.312 102.815 C 85.862 102.815 85.487 102.815 85.187 102.815 C 81.707 102.815 79.967 101.435 79.967 98.675 C 79.967 95.975 81.677 94.625 85.097 94.625 C 85.637 94.625 86.147 94.64 86.627 94.67 C 87.107 94.7 87.587 94.745 88.067 94.805 C 90.467 95.105 92.432 95.33 93.962 95.48 C 95.492 95.63 96.587 95.705 97.247 95.705 C 98.207 95.705 99.827 95.525 102.107 95.165 C 104.447 94.805 106.247 94.625 107.507 94.625 C 110.627 94.625 112.187 96.035 112.187 98.855 C 112.187 101.495 110.657 102.815 107.597 102.815 C 107.417 102.815 107.162 102.815 106.832 102.815 C 106.502 102.815 106.187 102.785 105.887 102.725 C 105.587 102.665 105.317 102.62 105.077 102.59 C 104.837 102.56 104.657 102.545 104.537 102.545 C 103.877 102.545 103.367 102.845 103.007 103.445 C 102.887 103.805 102.692 104.465 102.422 105.425 C 102.152 106.385 101.807 107.645 101.387 109.205 L 91.757 150.425 C 90.737 154.205 88.457 156.095 84.917 156.095 C 81.137 156.095 78.767 153.845 77.807 149.345 L 70.517 111.095 L 62.417 150.515 C 61.997 152.255 61.262 153.62 60.212 154.61 C 59.162 155.6 57.767 156.095 56.027 156.095 C 52.547 156.095 50.327 154.205 49.367 150.425 L 39.107 107.405 C 38.687 105.785 38.177 104.6 37.577 103.85 C 36.977 103.1 36.107 102.725 34.967 102.725 L 34.337 102.725 L 32.447 102.905 C 29.627 102.905 28.217 101.555 28.217 98.855 C 28.217 96.035 29.717 94.625 32.717 94.625 C 33.677 94.625 34.697 94.715 35.777 94.895 C 38.837 95.435 41.777 95.705 44.597 95.705 C 45.257 95.705 46.352 95.63 47.882 95.48 C 49.412 95.33 51.407 95.105 53.867 94.805 C 54.347 94.745 54.797 94.7 55.217 94.67 C 55.637 94.64 56.087 94.625 56.567 94.625 C 59.627 94.625 61.157 95.975 61.157 98.675 C 61.157 101.555 59.387 102.995 55.847 102.995 C 55.547 102.995 55.172 102.98 54.722 102.95 C 54.272 102.92 53.807 102.875 53.327 102.815 C 52.847 102.755 52.397 102.71 51.977 102.68 C 51.557 102.65 51.287 102.635 51.167 102.635 C 50.087 102.635 49.547 103.205 49.547 104.345 C 49.547 104.885 49.637 105.605 49.817 106.505 L 50.357 109.205 Z M 150.84 136.025 C 150.6 135.425 150.375 135.05 150.165 134.9 C 149.955 134.75 149.52 134.675 148.86 134.675 L 133.47 134.675 C 132.75 134.675 132.255 134.84 131.985 135.17 C 131.715 135.5 131.31 136.385 130.77 137.825 L 128.25 144.575 C 128.07 145.055 127.98 145.475 127.98 145.835 C 127.98 146.915 128.61 147.455 129.87 147.455 C 130.11 147.455 130.44 147.44 130.86 147.41 C 131.28 147.38 131.73 147.335 132.21 147.275 C 132.69 147.215 133.14 147.17 133.56 147.14 C 133.98 147.11 134.37 147.095 134.73 147.095 C 138.09 147.095 139.77 148.505 139.77 151.325 C 139.77 154.025 137.97 155.375 134.37 155.375 C 134.13 155.375 133.86 155.36 133.56 155.33 C 133.26 155.3 132.96 155.255 132.66 155.195 L 132.3 155.195 L 127.98 154.565 C 127.62 154.505 127.08 154.46 126.36 154.43 C 125.64 154.4 124.92 154.385 124.2 154.385 C 123.36 154.385 122.565 154.4 121.815 154.43 C 121.065 154.46 120.51 154.505 120.15 154.565 L 116.55 155.105 C 115.77 155.225 115.065 155.315 114.435 155.375 C 113.805 155.435 113.25 155.465 112.77 155.465 C 109.53 155.465 107.91 154.115 107.91 151.415 C 107.91 148.595 109.5 147.185 112.68 147.185 C 112.98 147.185 113.205 147.17 113.355 147.14 C 113.505 147.11 113.73 147.155 114.03 147.275 L 114.84 147.275 C 115.8 147.275 116.55 146.855 117.09 146.015 C 117.45 145.535 117.99 144.245 118.71 142.145 L 134.82 98.675 C 135.9 95.735 138.18 94.265 141.66 94.265 C 145.02 94.265 147.24 95.735 148.32 98.675 L 163.8 141.515 C 164.64 143.855 165.375 145.43 166.005 146.24 C 166.635 147.05 167.46 147.455 168.48 147.455 C 168.9 147.455 169.2 147.425 169.38 147.365 C 169.8 147.365 170.145 147.35 170.415 147.32 C 170.685 147.29 170.94 147.275 171.18 147.275 C 171.42 147.275 171.63 147.245 171.81 147.185 C 175.11 147.185 176.76 148.505 176.76 151.145 C 176.76 153.905 175.17 155.285 171.99 155.285 C 171.69 155.285 171.345 155.285 170.955 155.285 C 170.565 155.285 170.22 155.255 169.92 155.195 C 169.8 155.195 169.68 155.18 169.56 155.15 C 169.44 155.12 169.35 155.105 169.29 155.105 C 167.49 154.865 165.93 154.7 164.61 154.61 C 163.29 154.52 162.21 154.475 161.37 154.475 C 160.35 154.475 158.985 154.535 157.275 154.655 C 155.565 154.775 153.51 154.955 151.11 155.195 C 150.99 155.195 150.855 155.21 150.705 155.24 C 150.555 155.27 150.42 155.285 150.3 155.285 C 149.94 155.345 149.565 155.375 149.175 155.375 C 148.785 155.375 148.47 155.375 148.23 155.375 C 144.93 155.375 143.28 153.995 143.28 151.235 C 143.28 148.475 145.05 147.095 148.59 147.095 C 148.89 147.095 149.25 147.11 149.67 147.14 C 150.09 147.17 150.54 147.215 151.02 147.275 C 151.44 147.335 151.86 147.38 152.28 147.41 C 152.7 147.44 153 147.455 153.18 147.455 C 154.08 147.455 154.53 147.065 154.53 146.285 C 154.53 146.225 154.5 146.105 154.44 145.925 C 154.38 145.745 154.29 145.505 154.17 145.205 L 153.9 144.395 L 153.9 144.485 L 150.84 136.025 Z M 134.64 127.295 C 134.58 127.355 134.55 127.325 134.55 127.205 L 134.64 127.295 Z M 134.55 127.205 C 134.55 127.085 134.565 126.98 134.595 126.89 C 134.625 126.8 134.64 126.815 134.64 126.935 C 134.58 126.995 134.55 127.055 134.55 127.115 L 134.55 127.205 Z M 134.64 126.845 C 134.64 126.785 134.58 126.695 134.46 126.575 L 134.73 126.575 C 134.67 126.635 134.64 126.725 134.64 126.845 Z M 147.78 127.025 C 147.72 126.965 147.69 126.905 147.69 126.845 C 147.69 126.785 147.66 126.695 147.6 126.575 L 148.14 126.575 C 147.9 126.695 147.78 126.845 147.78 127.025 Z M 141.3 107.135 C 140.16 110.375 139.035 113.615 137.925 116.855 C 136.815 120.095 135.75 123.335 134.73 126.575 L 147.6 126.575 L 147.6 126.395 L 141.3 107.135 Z M 220.906 123.155 C 220.486 123.395 220.081 123.575 219.691 123.695 C 219.301 123.815 218.866 123.965 218.386 124.145 C 219.166 124.565 219.871 125.015 220.501 125.495 C 221.131 125.975 221.656 126.545 222.076 127.205 C 222.796 128.285 223.351 129.65 223.741 131.3 C 224.131 132.95 224.326 134.945 224.326 137.285 L 224.326 141.335 C 224.266 141.515 224.236 141.845 224.236 142.325 C 224.236 145.685 225.076 147.365 226.756 147.365 C 228.496 147.365 229.366 145.265 229.366 141.065 L 229.366 138.545 L 229.276 136.385 L 229.276 135.125 C 229.276 134.225 229.306 133.445 229.366 132.785 C 229.426 132.125 229.546 131.585 229.726 131.165 C 230.326 129.725 231.676 129.005 233.776 129.005 C 236.836 129.005 238.366 130.625 238.366 133.865 C 238.366 133.925 238.366 134.15 238.366 134.54 C 238.366 134.93 238.336 135.365 238.276 135.845 C 238.276 136.145 238.261 136.46 238.231 136.79 C 238.201 137.12 238.186 137.405 238.186 137.645 C 238.126 138.245 238.096 138.725 238.096 139.085 C 238.096 139.445 238.096 139.715 238.096 139.895 L 238.096 142.055 C 238.156 142.295 238.186 142.55 238.186 142.82 C 238.186 143.09 238.186 143.345 238.186 143.585 C 238.186 147.365 237.121 150.29 234.991 152.36 C 232.861 154.43 229.876 155.465 226.036 155.465 C 218.296 155.465 214.426 151.625 214.426 143.945 L 214.426 141.335 L 214.516 138.455 L 214.516 136.565 C 214.516 133.025 213.916 130.805 212.716 129.905 C 211.516 128.765 208.816 128.195 204.616 128.195 L 196.606 128.195 C 195.766 128.195 195.346 128.915 195.346 130.355 L 195.346 137.015 C 195.346 139.115 195.361 140.75 195.391 141.92 C 195.421 143.09 195.436 143.825 195.436 144.125 L 195.436 144.035 C 195.916 146.315 196.876 147.455 198.316 147.455 C 198.856 147.455 199.366 147.395 199.846 147.275 C 200.806 147.095 201.646 147.005 202.366 147.005 C 205.186 147.005 206.596 148.385 206.596 151.145 C 206.596 154.025 204.796 155.465 201.196 155.465 C 201.076 155.405 200.956 155.375 200.836 155.375 C 200.476 155.375 200.176 155.345 199.936 155.285 L 195.346 154.655 C 194.386 154.535 193.546 154.445 192.826 154.385 C 192.106 154.325 191.416 154.295 190.756 154.295 C 190.396 154.295 189.871 154.355 189.181 154.475 C 188.491 154.595 187.771 154.715 187.021 154.835 C 186.271 154.955 185.521 155.09 184.771 155.24 C 184.021 155.39 183.376 155.495 182.836 155.555 C 182.176 155.555 181.651 155.585 181.261 155.645 C 180.871 155.705 180.196 155.645 179.236 155.465 C 175.756 155.465 174.016 154.025 174.016 151.145 C 174.016 148.505 175.396 147.185 178.156 147.185 C 178.216 147.185 178.306 147.2 178.426 147.23 C 178.546 147.26 178.726 147.275 178.966 147.275 C 179.146 147.275 179.386 147.29 179.686 147.32 C 179.986 147.35 180.286 147.365 180.586 147.365 C 180.886 147.425 181.186 147.47 181.486 147.5 C 181.786 147.53 182.086 147.545 182.386 147.545 C 184.306 147.545 185.266 145.805 185.266 142.325 L 185.266 107.675 C 185.266 104.315 184.336 102.545 182.476 102.365 C 182.476 102.425 182.206 102.47 181.666 102.5 C 181.126 102.53 180.706 102.575 180.406 102.635 C 180.046 102.695 179.656 102.74 179.236 102.77 C 178.816 102.8 178.456 102.815 178.156 102.815 C 177.076 102.815 176.116 102.41 175.276 101.6 C 174.436 100.79 174.016 99.875 174.016 98.855 C 174.016 96.035 175.786 94.625 179.326 94.625 C 179.446 94.625 179.641 94.625 179.911 94.625 C 180.181 94.625 180.436 94.655 180.676 94.715 C 181.396 94.775 182.131 94.85 182.881 94.94 C 183.631 95.03 184.336 95.105 184.996 95.165 C 185.596 95.225 186.241 95.27 186.931 95.3 C 187.621 95.33 188.386 95.345 189.226 95.345 C 190.066 95.345 190.921 95.33 191.791 95.3 C 192.661 95.27 193.606 95.225 194.626 95.165 L 195.166 95.165 L 201.736 94.805 C 202.816 94.745 203.881 94.7 204.931 94.67 C 205.981 94.64 206.956 94.625 207.856 94.625 C 221.476 94.625 228.286 99.875 228.286 110.375 C 228.286 116.555 225.826 120.815 220.906 123.155 Z M 204.436 120.005 C 206.716 120.005 208.711 119.855 210.421 119.555 C 212.131 119.255 213.556 118.775 214.696 118.115 C 217.096 116.795 218.296 114.365 218.296 110.825 C 218.296 105.065 214.276 102.185 206.236 102.185 C 201.676 102.185 198.646 102.515 197.146 103.175 C 196.006 103.655 195.436 104.735 195.436 106.415 C 195.436 106.835 195.421 107.285 195.391 107.765 C 195.361 108.245 195.346 108.665 195.346 109.025 L 195.346 119.015 C 195.346 119.495 195.391 119.78 195.481 119.87 C 195.571 119.96 195.856 120.005 196.336 120.005 L 204.436 120.005 Z M 266.355 99.305 L 266.265 99.215 C 268.185 103.235 269.97 106.955 271.62 110.375 C 273.27 113.795 274.905 117.14 276.525 120.41 C 278.145 123.68 279.78 127.025 281.43 130.445 C 283.08 133.865 284.865 137.585 286.785 141.605 L 286.785 113.165 C 286.785 108.725 286.755 106.355 286.695 106.055 C 286.275 103.835 285.375 102.635 283.995 102.455 C 283.935 102.515 283.65 102.56 283.14 102.59 C 282.63 102.62 282.225 102.665 281.925 102.725 C 281.505 102.785 281.1 102.83 280.71 102.86 C 280.32 102.89 279.975 102.905 279.675 102.905 C 278.535 102.905 277.545 102.5 276.705 101.69 C 275.865 100.88 275.445 99.965 275.445 98.945 C 275.445 96.065 277.245 94.625 280.845 94.625 C 281.145 94.625 281.37 94.61 281.52 94.58 C 281.67 94.55 281.895 94.595 282.195 94.715 L 285.975 95.255 C 286.815 95.375 287.64 95.465 288.45 95.525 C 289.26 95.585 289.995 95.615 290.655 95.615 C 291.975 95.615 293.895 95.435 296.415 95.075 L 299.475 94.625 C 299.715 94.625 299.925 94.595 300.105 94.535 L 300.825 94.535 C 304.305 94.535 306.045 95.945 306.045 98.765 C 306.045 101.525 304.395 102.905 301.095 102.905 C 300.795 102.905 300.57 102.92 300.42 102.95 C 300.27 102.98 300.105 102.935 299.925 102.815 L 299.295 102.815 C 298.155 102.815 297.42 103.115 297.09 103.715 C 296.76 104.315 296.535 105.635 296.415 107.675 C 296.415 108.515 296.385 109.34 296.325 110.15 C 296.265 110.96 296.235 111.785 296.235 112.625 L 296.055 121.445 L 296.055 144.485 C 296.055 148.925 295.515 152.03 294.435 153.8 C 293.355 155.57 291.435 156.455 288.675 156.455 C 285.255 156.455 282.435 154.205 280.215 149.705 L 260.325 108.485 L 260.325 142.325 C 260.325 145.805 261.315 147.545 263.295 147.545 C 263.415 147.545 263.655 147.53 264.015 147.5 C 264.375 147.47 264.765 147.455 265.185 147.455 C 265.545 147.395 266.04 147.335 266.67 147.275 C 267.3 147.215 267.555 147.185 267.435 147.185 C 270.255 147.185 271.665 148.535 271.665 151.235 C 271.665 154.055 269.865 155.465 266.265 155.465 L 265.635 155.465 C 265.515 155.405 265.38 155.375 265.23 155.375 C 265.08 155.375 264.975 155.375 264.915 155.375 L 261.405 154.835 L 261.495 154.835 C 260.475 154.715 259.515 154.61 258.615 154.52 C 257.715 154.43 256.875 154.385 256.095 154.385 C 255.495 154.385 254.7 154.43 253.71 154.52 C 252.72 154.61 251.655 154.715 250.515 154.835 L 246.285 155.375 C 246.045 155.375 245.835 155.405 245.655 155.465 L 244.755 155.465 C 241.335 155.465 239.625 154.055 239.625 151.235 C 239.625 148.655 241.035 147.365 243.855 147.365 C 243.915 147.365 244.005 147.38 244.125 147.41 C 244.245 147.44 244.395 147.455 244.575 147.455 L 246.285 147.455 C 246.825 147.635 247.395 147.725 247.995 147.725 C 249.915 147.725 250.875 145.985 250.875 142.505 L 250.875 136.475 L 250.965 128.825 L 250.965 121.445 L 250.875 107.765 C 250.875 104.225 249.885 102.455 247.905 102.455 C 247.605 102.455 247.305 102.485 247.005 102.545 C 246.885 102.545 246.78 102.56 246.69 102.59 C 246.6 102.62 246.495 102.635 246.375 102.635 C 245.895 102.755 245.415 102.83 244.935 102.86 C 244.455 102.89 244.065 102.905 243.765 102.905 C 240.945 102.905 239.535 101.555 239.535 98.855 C 239.535 96.035 241.245 94.625 244.665 94.625 C 244.845 94.625 245.085 94.625 245.385 94.625 C 245.685 94.625 245.985 94.655 246.285 94.715 C 247.665 94.835 248.91 94.94 250.02 95.03 C 251.13 95.12 252.045 95.165 252.765 95.165 C 253.485 95.165 254.715 95.075 256.455 94.895 C 258.135 94.715 259.485 94.625 260.505 94.625 C 261.765 94.625 262.77 94.835 263.52 95.255 C 264.27 95.675 264.885 96.305 265.365 97.145 L 266.355 99.305 Z M 319.276 107.675 C 319.276 104.195 318.286 102.455 316.306 102.455 C 315.766 102.455 315.256 102.515 314.776 102.635 C 313.756 102.815 312.886 102.905 312.166 102.905 C 311.026 102.905 310.051 102.53 309.241 101.78 C 308.431 101.03 308.026 100.055 308.026 98.855 C 308.026 96.035 309.766 94.625 313.246 94.625 C 313.426 94.625 313.666 94.625 313.966 94.625 C 314.266 94.625 314.536 94.655 314.776 94.715 L 319.276 95.345 C 320.116 95.465 320.971 95.555 321.841 95.615 C 322.711 95.675 323.566 95.705 324.406 95.705 C 325.186 95.705 326.071 95.66 327.061 95.57 C 328.051 95.48 329.056 95.375 330.076 95.255 L 333.946 94.715 C 334.186 94.655 334.441 94.625 334.711 94.625 C 334.981 94.625 335.206 94.625 335.386 94.625 C 338.926 94.625 340.696 96.035 340.696 98.855 C 340.696 100.055 340.276 101.03 339.436 101.78 C 338.596 102.53 337.636 102.905 336.556 102.905 C 335.716 102.905 334.846 102.815 333.946 102.635 C 333.346 102.515 332.806 102.455 332.326 102.455 C 330.406 102.455 329.446 104.195 329.446 107.675 L 329.446 142.325 C 329.446 145.805 330.406 147.545 332.326 147.545 C 332.446 147.545 332.581 147.545 332.731 147.545 C 332.881 147.545 333.106 147.515 333.406 147.455 L 334.036 147.455 L 333.946 147.455 C 335.026 147.275 335.896 147.185 336.556 147.185 C 339.316 147.185 340.696 148.505 340.696 151.145 C 340.696 154.025 338.926 155.465 335.386 155.465 L 334.576 155.465 C 334.456 155.405 334.276 155.375 334.036 155.375 L 329.446 154.655 C 328.666 154.535 327.901 154.445 327.151 154.385 C 326.401 154.325 325.666 154.295 324.946 154.295 C 323.746 154.295 322.636 154.34 321.616 154.43 C 320.596 154.52 319.606 154.625 318.646 154.745 L 314.686 155.375 C 314.446 155.375 314.236 155.405 314.056 155.465 L 313.156 155.465 C 309.736 155.465 308.026 154.025 308.026 151.145 C 308.026 148.505 309.406 147.185 312.166 147.185 C 312.226 147.185 312.316 147.2 312.436 147.23 C 312.556 147.26 312.706 147.275 312.886 147.275 C 313.066 147.275 313.306 147.29 313.606 147.32 C 313.906 147.35 314.236 147.365 314.596 147.365 C 314.896 147.425 315.181 147.47 315.451 147.5 C 315.721 147.53 316.006 147.545 316.306 147.545 C 318.286 147.545 319.276 145.805 319.276 142.325 L 319.276 107.675 Z M 369.496 99.305 L 369.406 99.215 C 371.326 103.235 373.111 106.955 374.761 110.375 C 376.411 113.795 378.046 117.14 379.666 120.41 C 381.286 123.68 382.921 127.025 384.571 130.445 C 386.221 133.865 388.006 137.585 389.926 141.605 L 389.926 113.165 C 389.926 108.725 389.896 106.355 389.836 106.055 C 389.416 103.835 388.516 102.635 387.136 102.455 C 387.076 102.515 386.791 102.56 386.281 102.59 C 385.771 102.62 385.366 102.665 385.066 102.725 C 384.646 102.785 384.241 102.83 383.851 102.86 C 383.461 102.89 383.116 102.905 382.816 102.905 C 381.676 102.905 380.686 102.5 379.846 101.69 C 379.006 100.88 378.586 99.965 378.586 98.945 C 378.586 96.065 380.386 94.625 383.986 94.625 C 384.286 94.625 384.511 94.61 384.661 94.58 C 384.811 94.55 385.036 94.595 385.336 94.715 L 389.116 95.255 C 389.956 95.375 390.781 95.465 391.591 95.525 C 392.401 95.585 393.136 95.615 393.796 95.615 C 395.116 95.615 397.036 95.435 399.556 95.075 L 402.616 94.625 C 402.856 94.625 403.066 94.595 403.246 94.535 L 403.966 94.535 C 407.446 94.535 409.186 95.945 409.186 98.765 C 409.186 101.525 407.536 102.905 404.236 102.905 C 403.936 102.905 403.711 102.92 403.561 102.95 C 403.411 102.98 403.246 102.935 403.066 102.815 L 402.436 102.815 C 401.296 102.815 400.561 103.115 400.231 103.715 C 399.901 104.315 399.676 105.635 399.556 107.675 C 399.556 108.515 399.526 109.34 399.466 110.15 C 399.406 110.96 399.376 111.785 399.376 112.625 L 399.196 121.445 L 399.196 144.485 C 399.196 148.925 398.656 152.03 397.576 153.8 C 396.496 155.57 394.576 156.455 391.816 156.455 C 388.396 156.455 385.576 154.205 383.356 149.705 L 363.466 108.485 L 363.466 142.325 C 363.466 145.805 364.456 147.545 366.436 147.545 C 366.556 147.545 366.796 147.53 367.156 147.5 C 367.516 147.47 367.906 147.455 368.326 147.455 C 368.686 147.395 369.181 147.335 369.811 147.275 C 370.441 147.215 370.696 147.185 370.576 147.185 C 373.396 147.185 374.806 148.535 374.806 151.235 C 374.806 154.055 373.006 155.465 369.406 155.465 L 368.776 155.465 C 368.656 155.405 368.521 155.375 368.371 155.375 C 368.221 155.375 368.116 155.375 368.056 155.375 L 364.546 154.835 L 364.636 154.835 C 363.616 154.715 362.656 154.61 361.756 154.52 C 360.856 154.43 360.016 154.385 359.236 154.385 C 358.636 154.385 357.841 154.43 356.851 154.52 C 355.861 154.61 354.796 154.715 353.656 154.835 L 349.426 155.375 C 349.186 155.375 348.976 155.405 348.796 155.465 L 347.896 155.465 C 344.476 155.465 342.766 154.055 342.766 151.235 C 342.766 148.655 344.176 147.365 346.996 147.365 C 347.056 147.365 347.146 147.38 347.266 147.41 C 347.386 147.44 347.536 147.455 347.716 147.455 L 349.426 147.455 C 349.966 147.635 350.536 147.725 351.136 147.725 C 353.056 147.725 354.016 145.985 354.016 142.505 L 354.016 136.475 L 354.106 128.825 L 354.106 121.445 L 354.016 107.765 C 354.016 104.225 353.026 102.455 351.046 102.455 C 350.746 102.455 350.446 102.485 350.146 102.545 C 350.026 102.545 349.921 102.56 349.831 102.59 C 349.741 102.62 349.636 102.635 349.516 102.635 C 349.036 102.755 348.556 102.83 348.076 102.86 C 347.596 102.89 347.206 102.905 346.906 102.905 C 344.086 102.905 342.676 101.555 342.676 98.855 C 342.676 96.035 344.386 94.625 347.806 94.625 C 347.986 94.625 348.226 94.625 348.526 94.625 C 348.826 94.625 349.126 94.655 349.426 94.715 C 350.806 94.835 352.051 94.94 353.161 95.03 C 354.271 95.12 355.186 95.165 355.906 95.165 C 356.626 95.165 357.856 95.075 359.596 94.895 C 361.276 94.715 362.626 94.625 363.646 94.625 C 364.906 94.625 365.911 94.835 366.661 95.255 C 367.411 95.675 368.026 96.305 368.506 97.145 L 369.496 99.305 Z M 439.022 93.095 C 444.002 93.095 448.622 94.595 452.882 97.595 L 452.882 97.505 C 452.882 94.805 454.322 93.455 457.202 93.455 C 460.202 93.455 461.702 95.075 461.702 98.315 C 461.702 98.795 461.702 99.215 461.702 99.575 C 461.702 99.935 461.672 100.205 461.612 100.385 L 461.072 104.435 C 460.892 105.695 460.802 106.955 460.802 108.215 C 460.802 108.755 460.832 109.61 460.892 110.78 C 460.952 111.95 461.042 113.405 461.162 115.145 L 461.162 115.955 C 461.162 119.375 459.602 121.085 456.482 121.085 C 453.482 121.085 451.982 119.255 451.982 115.595 L 451.982 112.985 C 451.982 109.385 450.812 106.55 448.472 104.48 C 446.132 102.41 442.952 101.375 438.932 101.375 C 433.832 101.375 429.827 103.415 426.917 107.495 C 424.007 111.575 422.552 117.215 422.552 124.415 C 422.552 132.035 424.052 137.99 427.052 142.28 C 430.052 146.57 434.192 148.715 439.472 148.715 C 443.432 148.715 446.492 147.53 448.652 145.16 C 450.812 142.79 451.892 139.385 451.892 134.945 C 451.892 133.445 451.667 132.395 451.217 131.795 C 450.767 131.195 449.972 130.895 448.832 130.895 C 448.592 130.895 448.337 130.91 448.067 130.94 C 447.797 130.97 447.452 130.985 447.032 130.985 C 446.732 131.045 446.357 131.075 445.907 131.075 C 445.457 131.075 445.112 131.075 444.872 131.075 C 441.152 131.075 439.292 129.695 439.292 126.935 C 439.292 124.115 440.942 122.705 444.242 122.705 C 444.722 122.705 445.112 122.72 445.412 122.75 C 445.712 122.78 446.042 122.825 446.402 122.885 L 446.942 122.885 C 448.802 123.125 450.437 123.305 451.847 123.425 C 453.257 123.545 454.472 123.605 455.492 123.605 C 458.252 123.605 461.162 123.335 464.222 122.795 C 464.582 122.735 464.972 122.69 465.392 122.66 C 465.812 122.63 466.292 122.615 466.832 122.615 C 470.132 122.615 471.782 123.965 471.782 126.665 C 471.782 127.865 471.332 128.855 470.432 129.635 C 469.532 130.415 468.482 130.805 467.282 130.805 C 466.862 130.805 466.487 130.805 466.157 130.805 C 465.827 130.805 465.572 130.775 465.392 130.715 C 465.212 130.715 465.062 130.685 464.942 130.625 L 464.402 130.625 C 462.842 130.625 462.062 133.055 462.062 137.915 L 462.062 144.845 C 462.062 145.745 462.092 146.585 462.152 147.365 C 462.212 148.145 462.272 148.865 462.332 149.525 C 462.392 149.885 462.422 150.29 462.422 150.74 C 462.422 151.19 462.422 151.535 462.422 151.775 C 462.422 154.895 460.892 156.455 457.832 156.455 C 454.832 156.455 453.332 154.985 453.332 152.045 L 453.332 151.955 C 453.332 151.835 453.362 151.745 453.422 151.685 L 452.972 152.045 C 449.252 155.285 444.302 156.905 438.122 156.905 C 430.262 156.905 423.902 153.995 419.042 148.175 C 416.582 145.295 414.782 141.98 413.642 138.23 C 412.502 134.48 411.932 130.325 411.932 125.765 C 411.932 115.865 414.332 107.975 419.132 102.095 C 424.052 96.095 430.682 93.095 439.022 93.095 Z" style="fill: rgb(251, 251, 251); white-space: pre;"/>
</svg>