<?xml version="1.0" encoding="utf-8"?>
<svg viewBox="0 0 500 250" xmlns="http://www.w3.org/2000/svg">
  <path d="M 446.429 0 L 50 0 C 25 0 0 25 0 50 L 0 200 C 0 225 23.995 250 53.571 250 L 446.429 250 C 476.005 250 500 225 500 200 L 500 50 C 500 25 476.005 0 446.429 0 Z" style="fill: rgb(161, 67, 156);"/>
  <path d="M 44.247 111.333 C 44.247 108.588 43.465 107.215 41.903 107.215 C 41.477 107.215 41.075 107.262 40.696 107.356 C 39.892 107.498 39.205 107.569 38.637 107.569 C 37.738 107.569 36.969 107.273 36.33 106.681 C 35.691 106.09 35.371 105.322 35.371 104.375 C 35.371 102.15 36.744 101.038 39.489 101.038 C 39.631 101.038 39.821 101.038 40.057 101.038 C 40.294 101.038 40.507 101.061 40.696 101.108 L 44.247 101.605 C 44.909 101.7 45.583 101.771 46.269 101.818 C 46.956 101.866 47.63 101.89 48.292 101.89 C 48.908 101.89 49.606 101.855 50.387 101.783 C 51.168 101.712 51.961 101.63 52.766 101.535 L 55.819 101.108 C 56.009 101.061 56.21 101.038 56.422 101.038 C 56.636 101.038 56.813 101.038 56.954 101.038 C 59.748 101.038 61.144 102.15 61.144 104.375 C 61.144 105.322 60.813 106.09 60.15 106.681 C 59.488 107.273 58.73 107.569 57.878 107.569 C 57.215 107.569 56.529 107.498 55.819 107.356 C 55.346 107.262 54.92 107.215 54.54 107.215 C 53.026 107.215 52.269 108.588 52.269 111.333 L 52.269 138.667 C 52.269 141.413 53.026 142.786 54.54 142.786 C 54.636 142.786 54.742 142.786 54.861 142.786 C 54.979 142.786 55.157 142.762 55.393 142.714 L 55.89 142.714 L 55.819 142.714 C 56.671 142.572 57.357 142.501 57.878 142.501 C 60.055 142.501 61.144 143.542 61.144 145.625 C 61.144 147.897 59.748 149.033 56.954 149.033 L 56.316 149.033 C 56.221 148.986 56.079 148.962 55.89 148.962 L 52.269 148.395 C 51.654 148.3 51.05 148.229 50.458 148.182 C 49.867 148.135 49.287 148.111 48.719 148.111 C 47.772 148.111 46.896 148.146 46.092 148.217 C 45.287 148.289 44.506 148.371 43.75 148.465 L 40.626 148.962 C 40.436 148.962 40.27 148.986 40.129 149.033 L 39.419 149.033 C 36.721 149.033 35.371 147.897 35.371 145.625 C 35.371 143.542 36.46 142.501 38.637 142.501 C 38.685 142.501 38.756 142.513 38.85 142.536 C 38.945 142.561 39.063 142.573 39.206 142.573 C 39.348 142.573 39.537 142.585 39.773 142.608 C 40.01 142.632 40.27 142.644 40.554 142.644 C 40.791 142.691 41.016 142.726 41.228 142.75 C 41.441 142.774 41.666 142.786 41.903 142.786 C 43.465 142.786 44.247 141.413 44.247 138.667 L 44.247 111.333 Z M 85.566 106.93 L 85.566 106.859 L 95.009 137.745 L 105.375 104.588 C 106.132 102.221 107.529 101.038 109.564 101.038 L 109.919 101.038 C 110.392 101.038 111.055 101.109 111.908 101.251 C 112.855 101.487 113.423 101.605 113.612 101.605 C 113.99 101.653 114.416 101.689 114.889 101.712 C 115.363 101.736 115.884 101.748 116.452 101.748 C 117.729 101.748 118.723 101.677 119.433 101.535 L 121.492 101.18 C 121.682 101.085 122.132 101.038 122.841 101.038 C 125.729 101.038 127.172 102.15 127.172 104.375 C 127.172 106.458 126.06 107.499 123.835 107.499 C 123.551 107.499 123.255 107.487 122.948 107.464 C 122.641 107.44 122.345 107.404 122.061 107.356 C 121.776 107.309 121.433 107.274 121.031 107.25 C 120.629 107.227 120.451 107.191 120.498 107.143 C 119.031 107.191 118.297 108.588 118.297 111.333 L 118.297 116.09 L 118.226 122.125 L 118.226 127.876 L 118.297 138.667 C 118.297 141.413 119.055 142.786 120.57 142.786 C 120.759 142.786 120.936 142.774 121.102 142.75 C 121.268 142.726 121.445 142.714 121.634 142.714 C 122.155 142.62 122.533 142.573 122.771 142.573 C 123.007 142.573 123.172 142.573 123.268 142.573 C 123.41 142.573 123.528 142.561 123.622 142.536 C 123.717 142.513 123.788 142.501 123.835 142.501 C 126.06 142.501 127.172 143.542 127.172 145.625 C 127.172 146.714 126.793 147.614 126.036 148.324 C 125.279 149.034 124.285 149.27 123.054 149.033 C 122.108 148.939 121.398 148.904 120.924 148.927 C 120.451 148.951 119.883 148.891 119.22 148.749 C 118.084 148.655 117.138 148.561 116.38 148.465 C 115.623 148.371 114.842 148.324 114.037 148.324 C 113.043 148.324 112.061 148.36 111.09 148.43 C 110.12 148.501 109.138 148.631 108.144 148.821 C 107.293 148.962 106.488 149.033 105.73 149.033 C 103.174 149.033 101.896 147.968 101.896 145.838 C 101.896 143.662 103.198 142.573 105.801 142.573 C 106.085 142.573 106.31 142.561 106.476 142.536 C 106.641 142.513 106.819 142.549 107.008 142.644 C 107.245 142.691 107.458 142.714 107.647 142.714 C 107.837 142.714 107.979 142.714 108.074 142.714 L 108.641 142.714 C 109.588 142.714 110.203 141.318 110.488 138.526 C 110.535 138.053 110.57 137.224 110.594 136.04 C 110.617 134.857 110.629 133.39 110.629 131.638 C 110.629 130.881 110.629 129.958 110.629 128.87 C 110.629 127.781 110.653 126.527 110.701 125.107 C 110.701 124.255 110.724 123.225 110.771 122.018 C 110.818 120.811 110.842 119.782 110.842 118.929 L 110.842 111.9 L 99.837 146.122 C 99.458 147.117 98.855 147.91 98.027 148.501 C 97.199 149.093 96.169 149.389 94.938 149.389 C 93.424 149.389 92.3 149.152 91.566 148.679 C 90.833 148.205 90.276 147.353 89.897 146.122 C 88.099 140.585 86.288 134.952 84.466 129.224 C 82.643 123.497 80.856 117.817 79.105 112.184 L 79.461 138.596 C 79.508 141.295 80.028 142.644 81.022 142.644 C 81.401 142.644 81.993 142.549 82.798 142.36 L 83.862 142.36 C 86.418 142.36 87.696 143.472 87.696 145.697 C 87.696 147.921 86.395 149.033 83.792 149.033 C 83.602 149.033 83.413 149.033 83.223 149.033 C 83.034 149.033 82.821 149.009 82.585 148.962 L 82.655 148.962 C 82.56 148.915 82.418 148.892 82.229 148.892 L 78.964 148.395 C 78.017 148.253 76.928 148.182 75.697 148.182 C 73.283 148.182 71.721 148.253 71.012 148.395 L 68.101 148.962 C 67.959 148.962 67.84 148.986 67.745 149.033 L 67.178 149.033 C 64.29 149.033 62.847 147.921 62.847 145.697 C 62.847 144.75 63.178 143.981 63.841 143.389 C 64.503 142.797 65.26 142.501 66.112 142.501 C 66.443 142.501 66.822 142.525 67.248 142.573 C 67.675 142.62 68.053 142.667 68.385 142.714 C 68.574 142.762 68.811 142.786 69.095 142.786 C 69.237 142.786 69.355 142.81 69.449 142.857 C 70.964 142.857 71.722 141.484 71.722 138.739 L 71.722 111.333 C 71.722 108.682 70.988 107.285 69.52 107.143 C 69.52 107.191 69.307 107.227 68.882 107.25 C 68.455 107.274 68.124 107.309 67.888 107.356 C 67.604 107.404 67.296 107.44 66.965 107.464 C 66.633 107.487 66.349 107.499 66.112 107.499 C 63.935 107.499 62.847 106.458 62.847 104.375 C 62.847 102.15 64.266 101.038 67.106 101.038 C 67.201 101.038 67.355 101.038 67.567 101.038 C 67.781 101.038 67.982 101.061 68.172 101.108 L 70.515 101.392 C 71.651 101.534 72.716 101.605 73.709 101.605 C 74.136 101.605 74.621 101.582 75.165 101.535 C 75.709 101.487 76.336 101.416 77.047 101.321 C 77.803 101.227 78.466 101.156 79.034 101.108 C 79.603 101.061 80.076 101.038 80.454 101.038 C 82.821 101.038 84.36 102.387 85.069 105.085 L 85.566 106.93 Z M 138.745 111.333 C 138.745 108.588 137.964 107.215 136.402 107.215 C 136.307 107.215 136.212 107.215 136.118 107.215 C 136.023 107.215 135.857 107.239 135.621 107.286 C 135.526 107.286 135.431 107.297 135.336 107.321 C 135.242 107.345 135.147 107.356 135.052 107.356 L 135.195 107.356 C 134.343 107.498 133.656 107.569 133.135 107.569 C 130.91 107.569 129.798 106.505 129.798 104.375 C 129.798 102.15 131.194 101.038 133.988 101.038 C 134.224 101.038 134.437 101.038 134.627 101.038 C 134.816 101.038 135.006 101.061 135.195 101.108 L 135.124 101.108 L 138.46 101.535 C 139.597 101.677 140.922 101.748 142.437 101.748 C 143.477 101.748 144.827 101.677 146.484 101.535 L 146.412 101.535 C 148.258 101.345 149.903 101.215 151.347 101.144 C 152.791 101.073 154.009 101.038 155.003 101.038 C 158.128 101.038 160.707 101.274 162.742 101.748 C 164.21 102.174 165.595 102.801 166.897 103.629 C 168.198 104.458 169.31 105.44 170.232 106.576 C 171.156 107.712 171.89 108.978 172.434 110.374 C 172.978 111.771 173.25 113.25 173.25 114.811 C 173.25 119.403 171.7 122.918 168.6 125.355 C 165.499 127.793 160.967 129.011 155.003 129.011 L 150.105 129.011 C 149.394 129.011 148.779 129.011 148.258 129.011 C 147.738 129.011 147.359 128.988 147.122 128.941 C 146.933 128.988 146.826 129.071 146.803 129.189 C 146.779 129.308 146.768 129.604 146.768 130.077 L 146.768 131.425 C 146.768 137.2 146.91 140.608 147.194 141.65 C 147.383 142.408 148.022 142.786 149.111 142.786 C 149.347 142.786 149.56 142.774 149.749 142.75 C 149.939 142.726 150.152 142.691 150.388 142.644 C 150.625 142.644 150.873 142.632 151.134 142.608 C 151.395 142.585 151.596 142.573 151.738 142.573 C 151.88 142.573 151.998 142.561 152.092 142.536 C 152.187 142.513 152.282 142.501 152.376 142.501 C 154.554 142.501 155.643 143.542 155.643 145.625 C 155.643 147.897 154.199 149.033 151.312 149.033 C 151.217 148.986 151.122 148.962 151.028 148.962 C 150.933 148.962 150.826 148.962 150.708 148.962 C 150.59 148.962 150.484 148.939 150.388 148.892 L 146.981 148.395 C 146.034 148.253 144.661 148.182 142.863 148.182 C 141.348 148.182 140.093 148.253 139.099 148.395 L 135.124 148.962 C 134.982 148.962 134.84 148.986 134.698 149.033 L 134.129 149.033 C 131.29 149.033 129.87 147.921 129.87 145.697 C 129.87 144.75 130.189 143.981 130.828 143.389 C 131.467 142.797 132.236 142.501 133.135 142.501 C 133.798 142.501 134.484 142.572 135.195 142.714 C 135.384 142.714 135.573 142.726 135.762 142.75 C 135.951 142.774 136.165 142.786 136.402 142.786 C 137.964 142.786 138.745 141.413 138.745 138.667 L 138.745 111.333 Z M 147.051 108.35 C 146.862 108.587 146.768 109.653 146.768 111.546 L 146.768 121.628 C 146.768 122.243 147.336 122.621 148.471 122.763 C 148.756 122.763 148.992 122.775 149.181 122.799 C 149.371 122.823 149.584 122.835 149.821 122.835 C 150.057 122.835 150.353 122.823 150.708 122.799 C 151.063 122.775 151.548 122.763 152.163 122.763 C 153.631 122.716 155.028 122.645 156.353 122.55 C 157.678 122.456 158.885 122.29 159.974 122.053 C 163.429 121.154 165.156 118.811 165.156 115.024 C 165.156 109.865 161.843 107.286 155.216 107.286 C 150.246 107.286 147.525 107.64 147.051 108.35 Z M 197.177 150.169 C 190.787 150.169 185.698 147.874 181.911 143.283 C 178.267 138.692 176.445 132.585 176.445 124.964 C 176.445 117.297 178.291 111.191 181.983 106.646 C 185.722 102.103 190.905 99.831 197.531 99.831 C 203.921 99.831 208.939 102.031 212.584 106.433 C 216.323 110.836 218.192 116.705 218.192 124.042 C 218.192 131.994 216.299 138.312 212.513 142.998 C 208.915 147.779 203.803 150.169 197.177 150.169 Z M 197.319 106.646 C 193.295 106.646 190.195 108.232 188.018 111.404 C 185.84 114.575 184.751 119.072 184.751 124.893 C 184.751 130.81 185.84 135.366 188.018 138.561 C 190.195 141.756 193.271 143.354 197.247 143.354 C 201.034 143.354 204.064 141.745 206.336 138.526 C 208.703 135.259 209.886 130.644 209.886 124.68 C 209.886 118.859 208.809 114.398 206.655 111.298 C 204.501 108.197 201.39 106.646 197.319 106.646 Z M 258.661 123.545 C 258.329 123.734 258.01 123.876 257.702 123.97 C 257.394 124.065 257.051 124.184 256.673 124.326 C 257.288 124.657 257.845 125.012 258.342 125.39 C 258.838 125.77 259.253 126.219 259.584 126.74 C 260.152 127.592 260.59 128.668 260.898 129.97 C 261.205 131.271 261.358 132.845 261.358 134.692 L 261.358 137.886 C 261.311 138.029 261.288 138.289 261.288 138.667 C 261.288 141.318 261.95 142.644 263.275 142.644 C 264.648 142.644 265.335 140.987 265.335 137.673 L 265.335 135.686 L 265.264 133.982 L 265.264 132.988 C 265.264 132.277 265.288 131.662 265.335 131.141 C 265.382 130.621 265.477 130.195 265.619 129.864 C 266.092 128.728 267.157 128.16 268.813 128.16 C 271.227 128.16 272.434 129.438 272.434 131.994 C 272.434 132.041 272.434 132.219 272.434 132.526 C 272.434 132.834 272.411 133.177 272.364 133.555 C 272.364 133.793 272.352 134.041 272.328 134.301 C 272.305 134.561 272.293 134.786 272.293 134.976 C 272.246 135.449 272.222 135.828 272.222 136.112 C 272.222 136.396 272.222 136.609 272.222 136.75 L 272.222 138.455 C 272.27 138.644 272.293 138.845 272.293 139.058 C 272.293 139.271 272.293 139.472 272.293 139.662 C 272.293 142.644 271.453 144.951 269.772 146.584 C 268.092 148.217 265.737 149.033 262.708 149.033 C 256.602 149.033 253.549 146.004 253.549 139.946 L 253.549 137.886 L 253.62 135.615 L 253.62 134.124 C 253.62 131.331 253.146 129.58 252.199 128.87 C 251.253 127.97 249.123 127.521 245.81 127.521 L 239.492 127.521 C 238.828 127.521 238.496 128.088 238.496 129.224 L 238.496 134.479 C 238.496 136.135 238.509 137.425 238.533 138.348 C 238.557 139.271 238.568 139.851 238.568 140.087 L 238.568 140.017 C 238.947 141.815 239.704 142.714 240.84 142.714 C 241.266 142.714 241.668 142.667 242.047 142.573 C 242.804 142.431 243.467 142.36 244.034 142.36 C 246.259 142.36 247.371 143.448 247.371 145.625 C 247.371 147.897 245.952 149.033 243.112 149.033 C 243.017 148.986 242.922 148.962 242.827 148.962 C 242.544 148.962 242.307 148.939 242.117 148.892 L 238.496 148.395 C 237.74 148.3 237.077 148.229 236.509 148.182 C 235.941 148.135 235.397 148.111 234.875 148.111 C 234.592 148.111 234.178 148.158 233.633 148.252 C 233.089 148.347 232.521 148.442 231.929 148.536 C 231.337 148.631 230.746 148.738 230.155 148.856 C 229.563 148.974 229.054 149.057 228.627 149.105 C 228.107 149.105 227.693 149.128 227.385 149.176 C 227.077 149.223 226.545 149.175 225.788 149.033 C 223.042 149.033 221.669 147.897 221.669 145.625 C 221.669 143.542 222.758 142.501 224.936 142.501 C 224.983 142.501 225.054 142.513 225.149 142.536 C 225.244 142.561 225.386 142.573 225.575 142.573 C 225.717 142.573 225.907 142.585 226.143 142.608 C 226.38 142.632 226.617 142.644 226.853 142.644 C 227.089 142.691 227.326 142.726 227.563 142.75 C 227.799 142.774 228.036 142.786 228.273 142.786 C 229.787 142.786 230.544 141.413 230.544 138.667 L 230.544 111.333 C 230.544 108.682 229.811 107.285 228.344 107.143 C 228.344 107.191 228.131 107.227 227.706 107.25 C 227.279 107.274 226.947 107.309 226.71 107.356 C 226.427 107.404 226.12 107.44 225.788 107.464 C 225.457 107.487 225.173 107.499 224.936 107.499 C 224.084 107.499 223.327 107.179 222.664 106.54 C 222.001 105.901 221.669 105.179 221.669 104.375 C 221.669 102.15 223.066 101.038 225.859 101.038 C 225.953 101.038 226.107 101.038 226.321 101.038 C 226.533 101.038 226.734 101.061 226.923 101.108 C 227.492 101.156 228.072 101.216 228.664 101.286 C 229.255 101.357 229.811 101.416 230.331 101.464 C 230.805 101.511 231.314 101.546 231.859 101.57 C 232.403 101.593 233.006 101.605 233.668 101.605 C 234.331 101.605 235.006 101.593 235.693 101.57 C 236.379 101.546 237.124 101.511 237.929 101.464 L 238.355 101.464 L 243.537 101.18 C 244.39 101.132 245.23 101.096 246.059 101.073 C 246.887 101.049 247.656 101.038 248.365 101.038 C 259.11 101.038 264.482 105.179 264.482 113.463 C 264.482 118.338 262.542 121.699 258.661 123.545 Z M 245.668 121.059 C 247.466 121.059 249.04 120.941 250.39 120.705 C 251.738 120.468 252.862 120.089 253.762 119.569 C 255.656 118.528 256.602 116.611 256.602 113.817 C 256.602 109.274 253.431 107.002 247.088 107.002 C 243.491 107.002 241.1 107.262 239.916 107.783 C 239.018 108.161 238.568 109.013 238.568 110.339 C 238.568 110.67 238.557 111.025 238.533 111.404 C 238.509 111.782 238.496 112.113 238.496 112.397 L 238.496 120.279 C 238.496 120.657 238.532 120.882 238.604 120.953 C 238.674 121.024 238.899 121.059 239.278 121.059 L 245.668 121.059 Z M 297.925 138.739 C 297.925 141.484 298.705 142.857 300.267 142.857 C 300.362 142.857 300.563 142.845 300.871 142.822 C 301.179 142.798 301.474 142.762 301.757 142.714 C 302.09 142.714 302.492 142.691 302.966 142.644 C 303.438 142.597 303.627 142.573 303.533 142.573 C 304.432 142.573 305.213 142.893 305.877 143.532 C 306.539 144.171 306.87 144.893 306.87 145.697 C 306.87 147.921 305.474 149.033 302.681 149.033 L 302.113 149.033 C 301.971 148.986 301.805 148.962 301.616 148.962 L 298.208 148.465 C 297.546 148.371 296.883 148.3 296.219 148.252 C 295.557 148.205 294.871 148.182 294.161 148.182 C 293.357 148.182 292.575 148.205 291.818 148.252 C 291.06 148.3 290.35 148.371 289.688 148.465 L 286.28 148.962 C 286.091 148.962 285.949 148.986 285.854 149.033 L 285.215 149.033 C 282.422 149.033 281.026 147.921 281.026 145.697 C 281.026 143.614 282.138 142.573 284.363 142.573 C 284.269 142.573 284.47 142.597 284.967 142.644 C 285.464 142.691 285.854 142.714 286.139 142.714 C 286.47 142.762 286.777 142.798 287.061 142.822 C 287.345 142.845 287.534 142.857 287.629 142.857 C 289.144 142.857 289.901 141.484 289.901 138.739 L 289.901 133.982 L 289.973 127.947 L 289.973 122.196 L 289.901 111.049 C 289.901 108.445 288.623 107.143 286.067 107.143 L 284.008 107.143 C 281.499 107.143 280.245 108.421 280.245 110.977 C 280.245 111.546 280.245 112.007 280.245 112.362 C 280.245 112.717 280.269 113.013 280.316 113.25 L 280.601 115.664 C 280.648 115.9 280.671 116.184 280.671 116.515 C 280.671 116.846 280.671 117.178 280.671 117.509 C 280.671 121.012 279.393 122.763 276.837 122.763 C 274.376 122.763 273.146 121.414 273.146 118.716 C 273.146 118.527 273.146 118.243 273.146 117.865 C 273.146 117.486 273.169 117.132 273.216 116.8 C 273.216 116.658 273.228 116.48 273.252 116.267 C 273.275 116.054 273.287 115.829 273.287 115.592 C 273.429 113.462 273.5 112.09 273.5 111.474 C 273.5 110.954 273.488 110.41 273.465 109.842 C 273.441 109.274 273.405 108.658 273.357 107.996 L 273.146 105.936 C 273.098 105.653 273.098 105.511 273.146 105.511 C 273.193 105.511 273.169 105.298 273.074 104.872 C 273.074 102.316 274.328 101.038 276.837 101.038 C 277.121 101.038 277.654 101.049 278.435 101.073 C 279.215 101.096 280.174 101.156 281.311 101.251 L 281.878 101.251 C 282.305 101.251 282.932 101.263 283.76 101.286 C 284.588 101.31 285.618 101.345 286.849 101.392 C 288.126 101.392 289.416 101.416 290.718 101.464 C 292.02 101.511 293.31 101.535 294.588 101.535 C 294.824 101.535 295.179 101.523 295.652 101.499 C 296.125 101.476 296.693 101.464 297.356 101.464 C 297.924 101.464 298.587 101.452 299.343 101.429 C 300.101 101.404 300.953 101.392 301.9 101.392 C 302.705 101.392 304.172 101.321 306.302 101.18 C 307.106 101.085 307.911 101.026 308.716 101.002 C 309.52 100.979 310.183 100.967 310.705 100.967 C 313.734 100.967 315.249 102.269 315.249 104.872 C 315.249 105.345 315.189 106.209 315.071 107.464 C 314.952 108.718 314.846 110.031 314.752 111.404 L 314.752 112.114 C 314.752 112.398 314.752 112.812 314.752 113.356 C 314.752 113.901 314.799 114.528 314.893 115.238 C 314.988 116.184 315.059 116.965 315.106 117.581 C 315.153 118.196 315.177 118.622 315.177 118.859 C 315.177 121.32 313.899 122.55 311.343 122.55 C 308.882 122.55 307.651 121.106 307.651 118.219 C 307.651 117.414 307.722 116.184 307.864 114.528 C 307.911 113.723 307.947 113.013 307.97 112.397 C 307.994 111.782 308.005 111.285 308.005 110.907 C 308.005 108.398 306.609 107.143 303.817 107.143 L 301.9 107.143 C 300.669 107.143 299.77 107.451 299.202 108.066 C 298.634 108.682 298.303 109.605 298.208 110.836 L 297.995 115.592 L 297.925 138.739 Z M 348.012 133.698 C 347.823 133.225 347.646 132.929 347.48 132.81 C 347.314 132.691 346.971 132.632 346.449 132.632 L 334.309 132.632 C 333.741 132.632 333.35 132.763 333.137 133.023 C 332.925 133.284 332.605 133.982 332.179 135.118 L 330.191 140.443 C 330.049 140.821 329.978 141.153 329.978 141.437 C 329.978 142.288 330.475 142.714 331.469 142.714 C 331.658 142.714 331.918 142.703 332.249 142.679 C 332.581 142.655 332.936 142.62 333.315 142.573 C 333.694 142.525 334.048 142.489 334.38 142.466 C 334.711 142.442 335.019 142.431 335.303 142.431 C 337.954 142.431 339.28 143.543 339.28 145.768 C 339.28 147.897 337.859 148.962 335.019 148.962 C 334.83 148.962 334.617 148.951 334.38 148.927 C 334.143 148.904 333.907 148.868 333.67 148.821 L 333.386 148.821 L 329.978 148.324 C 329.694 148.276 329.268 148.241 328.7 148.217 C 328.132 148.193 327.564 148.182 326.995 148.182 C 326.333 148.182 325.706 148.193 325.115 148.217 C 324.523 148.241 324.085 148.276 323.801 148.324 L 320.96 148.749 C 320.346 148.844 319.79 148.915 319.292 148.962 C 318.795 149.009 318.357 149.033 317.979 149.033 C 315.423 149.033 314.145 147.968 314.145 145.838 C 314.145 143.614 315.399 142.501 317.908 142.501 C 318.145 142.501 318.322 142.489 318.44 142.466 C 318.559 142.442 318.736 142.478 318.973 142.573 L 319.612 142.573 C 320.37 142.573 320.961 142.241 321.387 141.578 C 321.671 141.2 322.097 140.182 322.664 138.526 L 335.373 104.232 C 336.226 101.913 338.025 100.754 340.77 100.754 C 343.42 100.754 345.172 101.913 346.024 104.232 L 358.235 138.029 C 358.898 139.875 359.478 141.117 359.976 141.756 C 360.473 142.395 361.124 142.714 361.928 142.714 C 362.26 142.714 362.496 142.691 362.638 142.644 C 362.97 142.644 363.242 142.632 363.454 142.608 C 363.667 142.585 363.868 142.573 364.059 142.573 C 364.248 142.573 364.413 142.549 364.555 142.501 C 367.159 142.501 368.46 143.542 368.46 145.625 C 368.46 147.803 367.206 148.892 364.697 148.892 C 364.46 148.892 364.188 148.892 363.881 148.892 C 363.573 148.892 363.3 148.868 363.063 148.821 C 362.969 148.821 362.875 148.809 362.78 148.784 C 362.685 148.761 362.614 148.749 362.566 148.749 C 361.146 148.56 359.916 148.43 358.875 148.36 C 357.833 148.288 356.981 148.252 356.318 148.252 C 355.514 148.252 354.437 148.3 353.088 148.395 C 351.74 148.489 350.119 148.631 348.225 148.821 C 348.13 148.821 348.023 148.833 347.905 148.856 C 347.787 148.88 347.681 148.892 347.586 148.892 C 347.302 148.939 347.006 148.962 346.698 148.962 C 346.39 148.962 346.142 148.962 345.952 148.962 C 343.349 148.962 342.048 147.874 342.048 145.697 C 342.048 143.519 343.444 142.431 346.236 142.431 C 346.473 142.431 346.758 142.442 347.089 142.466 C 347.42 142.489 347.775 142.525 348.153 142.573 C 348.485 142.62 348.816 142.655 349.148 142.679 C 349.48 142.703 349.716 142.714 349.859 142.714 C 350.568 142.714 350.923 142.407 350.923 141.791 C 350.923 141.744 350.899 141.649 350.852 141.507 C 350.804 141.365 350.733 141.176 350.639 140.94 L 350.426 140.3 L 350.426 140.371 L 348.012 133.698 Z M 335.232 126.81 C 335.184 126.858 335.16 126.834 335.16 126.74 L 335.232 126.81 Z M 335.16 126.74 C 335.16 126.645 335.173 126.562 335.197 126.491 C 335.221 126.42 335.232 126.432 335.232 126.527 C 335.184 126.574 335.16 126.621 335.16 126.669 L 335.16 126.74 Z M 335.232 126.456 C 335.232 126.408 335.185 126.337 335.09 126.243 L 335.303 126.243 C 335.256 126.29 335.232 126.361 335.232 126.456 Z M 345.598 126.597 C 345.551 126.55 345.528 126.503 345.528 126.456 C 345.528 126.408 345.504 126.337 345.456 126.243 L 345.882 126.243 C 345.693 126.337 345.598 126.455 345.598 126.597 Z M 340.487 110.907 C 339.587 113.463 338.699 116.019 337.823 118.575 C 336.947 121.131 336.108 123.687 335.303 126.243 L 345.456 126.243 L 345.456 126.1 L 340.487 110.907 Z M 388.943 104.729 L 388.873 104.659 C 390.387 107.83 391.795 110.765 393.097 113.463 C 394.399 116.16 395.689 118.799 396.967 121.38 C 398.245 123.959 399.535 126.598 400.837 129.295 C 402.138 131.993 403.546 134.928 405.06 138.1 L 405.06 115.664 C 405.06 112.161 405.037 110.291 404.99 110.054 C 404.659 108.304 403.949 107.357 402.86 107.215 C 402.813 107.262 402.588 107.297 402.185 107.321 C 401.783 107.345 401.463 107.38 401.226 107.428 C 400.895 107.475 400.576 107.511 400.268 107.534 C 399.96 107.558 399.688 107.569 399.452 107.569 C 398.552 107.569 397.771 107.25 397.109 106.611 C 396.446 105.972 396.115 105.25 396.115 104.445 C 396.115 102.174 397.535 101.038 400.375 101.038 C 400.611 101.038 400.789 101.026 400.907 101.002 C 401.026 100.979 401.203 101.014 401.44 101.108 L 404.422 101.535 C 405.085 101.63 405.736 101.701 406.375 101.748 C 407.014 101.795 407.593 101.818 408.114 101.818 C 409.155 101.818 410.669 101.676 412.658 101.392 L 415.072 101.038 C 415.261 101.038 415.427 101.014 415.569 100.967 L 416.136 100.967 C 418.882 100.967 420.254 102.079 420.254 104.304 C 420.254 106.481 418.953 107.569 416.35 107.569 C 416.113 107.569 415.936 107.581 415.817 107.605 C 415.699 107.628 415.568 107.593 415.426 107.499 L 414.929 107.499 C 414.031 107.499 413.451 107.736 413.19 108.209 C 412.93 108.682 412.752 109.724 412.658 111.333 C 412.658 111.995 412.634 112.646 412.586 113.285 C 412.539 113.924 412.515 114.575 412.515 115.238 L 412.374 122.196 L 412.374 140.371 C 412.374 143.874 411.948 146.323 411.095 147.72 C 410.244 149.117 408.729 149.815 406.551 149.815 C 403.854 149.815 401.63 148.04 399.878 144.49 L 384.186 111.971 L 384.186 138.667 C 384.186 141.413 384.967 142.786 386.529 142.786 C 386.625 142.786 386.814 142.774 387.098 142.75 C 387.382 142.726 387.689 142.714 388.02 142.714 C 388.304 142.667 388.695 142.62 389.192 142.573 C 389.689 142.525 389.89 142.501 389.796 142.501 C 392.021 142.501 393.133 143.566 393.133 145.697 C 393.133 147.921 391.713 149.033 388.873 149.033 L 388.376 149.033 C 388.281 148.986 388.175 148.962 388.057 148.962 C 387.938 148.962 387.855 148.962 387.808 148.962 L 385.039 148.536 L 385.109 148.536 C 384.305 148.442 383.548 148.359 382.838 148.288 C 382.127 148.217 381.465 148.182 380.85 148.182 C 380.377 148.182 379.75 148.217 378.969 148.288 C 378.187 148.359 377.347 148.442 376.447 148.536 L 373.11 148.962 C 372.921 148.962 372.755 148.986 372.613 149.033 L 371.903 149.033 C 369.206 149.033 367.857 147.921 367.857 145.697 C 367.857 143.662 368.969 142.644 371.193 142.644 C 371.241 142.644 371.312 142.655 371.406 142.679 C 371.501 142.703 371.62 142.714 371.762 142.714 L 373.11 142.714 C 373.536 142.856 373.986 142.927 374.46 142.927 C 375.974 142.927 376.731 141.555 376.731 138.81 L 376.731 134.052 L 376.803 128.017 L 376.803 122.196 L 376.731 111.404 C 376.731 108.611 375.95 107.215 374.389 107.215 C 374.152 107.215 373.915 107.239 373.679 107.286 C 373.584 107.286 373.501 107.297 373.431 107.321 C 373.359 107.345 373.276 107.356 373.182 107.356 C 372.803 107.451 372.424 107.511 372.046 107.534 C 371.667 107.558 371.36 107.569 371.123 107.569 C 368.898 107.569 367.785 106.505 367.785 104.375 C 367.785 102.15 369.134 101.038 371.833 101.038 C 371.975 101.038 372.164 101.038 372.4 101.038 C 372.637 101.038 372.874 101.061 373.11 101.108 C 374.199 101.203 375.182 101.286 376.058 101.357 C 376.933 101.428 377.655 101.464 378.223 101.464 C 378.791 101.464 379.761 101.393 381.134 101.251 C 382.459 101.109 383.524 101.038 384.329 101.038 C 385.322 101.038 386.115 101.203 386.707 101.535 C 387.299 101.866 387.784 102.363 388.163 103.025 L 388.943 104.729 Z M 447.305 138.739 C 447.305 141.484 448.086 142.857 449.648 142.857 C 449.742 142.857 449.943 142.845 450.251 142.822 C 450.558 142.798 450.854 142.762 451.139 142.714 C 451.47 142.714 451.872 142.691 452.346 142.644 C 452.819 142.597 453.008 142.573 452.913 142.573 C 453.813 142.573 454.594 142.893 455.257 143.532 C 455.919 144.171 456.25 144.893 456.25 145.697 C 456.25 147.921 454.854 149.033 452.062 149.033 L 451.493 149.033 C 451.351 148.986 451.185 148.962 450.996 148.962 L 447.588 148.465 C 446.926 148.371 446.263 148.3 445.601 148.252 C 444.938 148.205 444.252 148.182 443.541 148.182 C 442.736 148.182 441.955 148.205 441.198 148.252 C 440.441 148.3 439.731 148.371 439.069 148.465 L 435.66 148.962 C 435.471 148.962 435.329 148.986 435.235 149.033 L 434.595 149.033 C 431.803 149.033 430.407 147.921 430.407 145.697 C 430.407 143.614 431.519 142.573 433.744 142.573 C 433.649 142.573 433.85 142.597 434.347 142.644 C 434.844 142.691 435.234 142.714 435.519 142.714 C 435.85 142.762 436.158 142.798 436.442 142.822 C 436.725 142.845 436.914 142.857 437.009 142.857 C 438.524 142.857 439.282 141.484 439.282 138.739 L 439.282 133.982 L 439.353 127.947 L 439.353 122.196 L 439.282 111.049 C 439.282 108.445 438.004 107.143 435.448 107.143 L 433.388 107.143 C 430.879 107.143 429.625 108.421 429.625 110.977 C 429.625 111.546 429.625 112.007 429.625 112.362 C 429.625 112.717 429.649 113.013 429.697 113.25 L 429.981 115.664 C 430.028 115.9 430.051 116.184 430.051 116.515 C 430.051 116.846 430.051 117.178 430.051 117.509 C 430.051 121.012 428.773 122.763 426.217 122.763 C 423.756 122.763 422.526 121.414 422.526 118.716 C 422.526 118.527 422.526 118.243 422.526 117.865 C 422.526 117.486 422.549 117.132 422.596 116.8 C 422.596 116.658 422.608 116.48 422.631 116.267 C 422.655 116.054 422.667 115.829 422.667 115.592 C 422.809 113.462 422.88 112.09 422.88 111.474 C 422.88 110.954 422.868 110.41 422.845 109.842 C 422.821 109.274 422.786 108.658 422.739 107.996 L 422.526 105.936 C 422.479 105.653 422.479 105.511 422.526 105.511 C 422.573 105.511 422.549 105.298 422.455 104.872 C 422.455 102.316 423.709 101.038 426.217 101.038 C 426.501 101.038 427.034 101.049 427.815 101.073 C 428.596 101.096 429.555 101.156 430.691 101.251 L 431.258 101.251 C 431.684 101.251 432.312 101.263 433.14 101.286 C 433.968 101.31 434.998 101.345 436.229 101.392 C 437.507 101.392 438.796 101.416 440.098 101.464 C 441.4 101.511 442.689 101.535 443.967 101.535 C 444.204 101.535 444.558 101.523 445.032 101.499 C 445.505 101.476 446.074 101.464 446.737 101.464 C 447.305 101.464 447.967 101.452 448.725 101.429 C 449.481 101.404 450.333 101.392 451.28 101.392 C 452.084 101.392 453.552 101.321 455.683 101.18 C 456.487 101.085 457.292 101.026 458.097 101.002 C 458.901 100.979 459.564 100.967 460.084 100.967 C 463.114 100.967 464.629 102.269 464.629 104.872 C 464.629 105.345 464.569 106.209 464.451 107.464 C 464.332 108.718 464.226 110.031 464.132 111.404 L 464.132 112.114 C 464.132 112.398 464.132 112.812 464.132 113.356 C 464.132 113.901 464.179 114.528 464.273 115.238 C 464.368 116.184 464.439 116.965 464.486 117.581 C 464.534 118.196 464.558 118.622 464.558 118.859 C 464.558 121.32 463.28 122.55 460.724 122.55 C 458.262 122.55 457.031 121.106 457.031 118.219 C 457.031 117.414 457.102 116.184 457.244 114.528 C 457.291 113.723 457.327 113.013 457.351 112.397 C 457.375 111.782 457.387 111.285 457.387 110.907 C 457.387 108.398 455.99 107.143 453.197 107.143 L 451.28 107.143 C 450.05 107.143 449.151 107.451 448.582 108.066 C 448.015 108.682 447.683 109.605 447.588 110.836 L 447.375 115.592 L 447.305 138.739 Z" style="fill: rgb(246, 239, 239); line-height: 97.4734px; white-space: pre;"/>
</svg>