<?xml version="1.0" encoding="utf-8"?>
<svg xmlns="http://www.w3.org/2000/svg" viewBox="0 0 1000 200" xmlns:bx="https://boxy-svg.com">
  <g transform="matrix(1, 0, 0, 1, 0, 177.893)">
    <rect width="849.999" height="200.001" rx="100" ry="100" style="stroke-width: 0px; paint-order: fill; fill: rgb(225, 129, 20); stroke: rgb(225, 129, 20); transform-origin: 425px -177.893px;" y="-177.89"/>
    <path d="M 239.45 -125.36 L 253.703 -125.36 L 268.181 -54.408 L 268.405 -54.408 L 284.566 -125.36 L 298.931 -125.36 L 314.643 -54.408 L 314.868 -54.408 L 329.794 -125.36 L 344.047 -125.36 L 321.938 -32.577 L 307.685 -32.577 L 291.637 -103.53 L 291.412 -103.53 L 275.027 -32.577 L 260.549 -32.577 L 239.45 -125.36 Z M 373.279 -125.36 L 388.205 -125.36 L 419.068 -32.577 L 404.029 -32.577 L 396.51 -57.137 L 364.525 -57.137 L 357.006 -32.577 L 342.528 -32.577 L 373.279 -125.36 Z M 368.341 -69.482 L 392.807 -69.482 L 380.798 -109.38 L 380.461 -109.38 L 368.341 -69.482 Z M 425.297 -125.36 L 463.567 -125.36 C 472.395 -125.36 479.017 -123.15 483.431 -118.73 C 487.845 -114.31 490.053 -108.16 490.053 -100.28 C 490.053 -95.861 489.491 -92.201 488.369 -89.298 C 487.247 -86.397 485.938 -84.057 484.441 -82.282 C 482.945 -80.506 481.467 -79.228 480.008 -78.448 C 478.549 -77.669 477.483 -77.149 476.81 -76.889 L 476.81 -76.629 C 478.007 -76.456 479.297 -76.022 480.681 -75.33 C 482.066 -74.637 483.356 -73.532 484.553 -72.016 C 485.75 -70.5 486.742 -68.529 487.527 -66.103 C 488.313 -63.678 488.706 -60.646 488.706 -57.007 C 488.706 -51.549 489.061 -46.59 489.772 -42.129 C 490.483 -37.666 491.586 -34.483 493.083 -32.577 L 478.044 -32.577 C 476.997 -34.569 476.379 -36.779 476.192 -39.205 C 476.005 -41.63 475.912 -43.969 475.912 -46.221 C 475.912 -50.467 475.687 -54.126 475.238 -57.202 C 474.789 -60.277 473.966 -62.833 472.769 -64.868 C 471.572 -66.905 469.945 -68.399 467.887 -69.352 C 465.83 -70.305 463.193 -70.781 459.975 -70.781 L 439.325 -70.781 L 439.325 -32.577 L 425.297 -32.577 L 425.297 -125.36 Z M 439.325 -83.127 L 462.332 -83.127 C 466.821 -83.127 470.226 -84.361 472.545 -86.829 C 474.864 -89.298 476.024 -93.002 476.024 -97.94 C 476.024 -100.89 475.65 -103.29 474.902 -105.15 C 474.154 -107.02 473.125 -108.47 471.815 -109.5 C 470.506 -110.55 469.01 -111.24 467.326 -111.58 C 465.643 -111.93 463.903 -112.1 462.108 -112.1 L 439.325 -112.1 L 439.325 -83.127 Z M 503.744 -125.36 L 518.559 -125.36 L 555.145 -57.007 L 555.37 -57.007 L 555.37 -125.36 L 568.725 -125.36 L 568.725 -32.577 L 553.911 -32.577 L 517.436 -100.8 L 517.1 -100.8 L 517.1 -32.577 L 503.744 -32.577 L 503.744 -125.36 Z M 585.331 -125.36 L 599.359 -125.36 L 599.359 -32.577 L 585.331 -32.577 L 585.331 -125.36 Z M 615.973 -125.36 L 630.787 -125.36 L 667.374 -57.007 L 667.598 -57.007 L 667.598 -125.36 L 680.953 -125.36 L 680.953 -32.577 L 666.139 -32.577 L 629.665 -100.8 L 629.328 -100.8 L 629.328 -32.577 L 615.973 -32.577 L 615.973 -125.36 Z M 767.481 -32.577 L 758.503 -32.577 L 756.371 -43.492 C 752.63 -38.555 748.889 -35.133 745.148 -33.227 C 741.407 -31.321 737.105 -30.368 732.242 -30.368 C 726.256 -30.368 720.888 -31.645 716.137 -34.202 C 711.386 -36.757 707.364 -40.244 704.072 -44.662 C 700.78 -49.08 698.255 -54.235 696.497 -60.126 C 694.739 -66.017 693.859 -72.298 693.859 -78.968 C 693.859 -85.552 694.739 -91.79 696.497 -97.68 C 698.255 -103.57 700.78 -108.72 704.072 -113.14 C 707.364 -117.56 711.386 -121.07 716.137 -123.67 C 720.888 -126.27 726.256 -127.57 732.242 -127.57 C 736.581 -127.57 740.715 -126.9 744.643 -125.55 C 748.571 -124.21 752.069 -122.22 755.136 -119.58 C 758.204 -116.93 760.748 -113.62 762.768 -109.64 C 764.788 -105.65 766.06 -101.06 766.584 -95.861 L 752.892 -95.861 C 752.518 -98.893 751.713 -101.56 750.479 -103.85 C 749.244 -106.15 747.692 -108.08 745.821 -109.64 C 743.951 -111.19 741.856 -112.36 739.536 -113.14 C 737.217 -113.92 734.785 -114.31 732.242 -114.31 C 727.977 -114.31 724.292 -113.32 721.187 -111.32 C 718.082 -109.33 715.557 -106.67 713.612 -103.33 C 711.666 -100 710.226 -96.208 709.291 -91.962 C 708.356 -87.718 707.888 -83.387 707.888 -78.968 C 707.888 -74.55 708.356 -70.218 709.291 -65.973 C 710.226 -61.729 711.666 -57.938 713.612 -54.603 C 715.557 -51.267 718.082 -48.604 721.187 -46.611 C 724.292 -44.619 727.977 -43.622 732.242 -43.622 C 735.833 -43.536 739.013 -44.077 741.781 -45.247 C 744.549 -46.416 746.887 -48.105 748.795 -50.315 C 750.703 -52.524 752.143 -55.231 753.116 -58.437 C 754.089 -61.642 754.612 -65.193 754.687 -69.092 L 733.364 -69.092 L 733.364 -81.437 L 767.481 -81.437 L 767.481 -32.577 Z" style="text-wrap-mode: nowrap; fill: rgb(255, 255, 255); stroke-width: 0px;"/>
    <g transform="matrix(0.403226, 0, 0, 0.403226, 97.2229, -77.1024)" style="transform-origin: 2.7771px -0.79112px;">
      <path fill="#000000" opacity="0.20" d="M 2.777 -248.79 C -134.22 -248.79 -245.22 -137.79 -245.22 -0.791 C -245.22 136.209 -134.22 247.209 2.777 247.209 C 139.777 247.209 250.777 136.209 250.777 -0.791 C 250.777 -137.79 139.777 -248.79 2.777 -248.79 Z" style="transform-origin: 2.7771px -0.790497px; stroke: rgb(225, 129, 20); stroke-width: 0px;"/>
      <path fill="white" d="M 48.6 105.6 C 48.6 132.067 27.067 153.6 0.6 153.6 C -25.867 153.6 -47.4 132.067 -47.4 105.6 C -47.4 79.133 -25.867 57.6 0.6 57.6 C 27.067 57.6 48.6 79.133 48.6 105.6 Z M -41.844 -138.48 L -33.684 24.719 C -33.301 32.383 -26.975 38.4 -19.302 38.4 L 20.502 38.4 C 28.175 38.4 34.501 32.383 34.884 24.719 L 43.044 -138.48 C 43.455 -146.71 36.898 -153.6 28.662 -153.6 L -27.462 -153.6 C -35.698 -153.6 -42.255 -146.71 -41.844 -138.48 Z" style="stroke: rgb(225, 129, 20); stroke-width: 0px;"/>
    </g>
  </g>
  <defs>
    <bx:grid x="0" y="0" width="100" height="100"/>
  </defs>
</svg>